<?xml version="1.0" encoding="UTF-8" standalone="no"?>
<!DOCTYPE svg PUBLIC "-//W3C//DTD SVG 1.1//EN" "http://www.w3.org/Graphics/SVG/1.1/DTD/svg11.dtd">
<svg width="100%" height="100%" viewBox="0 0 256 256" version="1.1" xmlns="http://www.w3.org/2000/svg" xmlns:xlink="http://www.w3.org/1999/xlink" xml:space="preserve" xmlns:serif="http://www.serif.com/" style="fill-rule:evenodd;clip-rule:evenodd;stroke-linejoin:round;stroke-miterlimit:2;">
    <g transform="matrix(5.33333,0,0,5.33333,4.08562e-14,0)">
        <path d="M45.5,0L2.5,0L6.3,42.9L24,48L41.7,42.9L45.5,0Z" style="fill:rgb(2,119,189);fill-rule:nonzero;"/>
    </g>
    <g transform="matrix(5.33333,0,0,5.33333,4.08562e-14,0)">
        <path d="M24,3.8L24,44.1L38.1,40.1L41.3,3.8L24,3.8Z" style="fill:rgb(3,155,229);fill-rule:nonzero;"/>
    </g>
    <g transform="matrix(5.33333,0,0,5.33333,4.08562e-14,0)">
        <path d="M35.5,10.1L24,10.1L24,15.2L30.2,15.2L29.8,20.3L24,20.3L24,25.4L29.6,25.4L29.2,31.1L24,32.7L24,38L34,34.7L34.9,20.2L35.5,10.1Z" style="fill:white;fill-rule:nonzero;"/>
    </g>
    <g transform="matrix(5.33333,0,0,5.33333,4.08562e-14,0)">
        <path d="M24,10.1L24,15.2L12.8,15.2L12.4,10.1L24,10.1ZM18.2,20.2L18.5,25.3L24,25.3L24,20.2L18.2,20.2ZM18.7,27.8L13.6,27.8L14,34.7L24,38L24,32.7L18.8,30.9L18.7,27.8Z" style="fill:rgb(238,238,238);fill-rule:nonzero;"/>
    </g>
</svg>
