<?xml version="1.0" encoding="UTF-8" standalone="no"?>
<!DOCTYPE svg PUBLIC "-//W3C//DTD SVG 1.1//EN" "http://www.w3.org/Graphics/SVG/1.1/DTD/svg11.dtd">
<svg width="100%" height="100%" viewBox="0 0 256 256" version="1.1" xmlns="http://www.w3.org/2000/svg" xmlns:xlink="http://www.w3.org/1999/xlink" xml:space="preserve" xmlns:serif="http://www.serif.com/" style="fill-rule:evenodd;clip-rule:evenodd;stroke-linejoin:round;stroke-miterlimit:2;">
    <g transform="matrix(2.56931,0,0,2.56931,-0.662816,-0.21536)">
        <path d="M50,49.5L74,25.5L74,74.4L62,62.6L50,74.4L38,62.6L26,74.4L26,25.5L50,49.5Z" style="fill:white;"/>
    </g>
    <g transform="matrix(0.256931,0,0,-0.256931,-0.662816,256.716)">
        <path d="M394,985C142,930 -30,682 10,428C51,163 307,-32 563,8C792,44 956,206 991,430C1031,685 857,931 601,986C521,1003 474,1003 394,985ZM500,505L740,745L740,256L620,374L500,256L380,374L260,256L260,745L500,505Z" style="fill:url(#_Linear1);fill-rule:nonzero;"/>
    </g>
    <defs>
        <linearGradient id="_Linear1" x1="0" y1="0" x2="1" y2="0" gradientUnits="userSpaceOnUse" gradientTransform="matrix(-700.943,-700.943,700.943,-700.943,850.634,852.542)"><stop offset="0" style="stop-color:rgb(215,63,133);stop-opacity:1"/><stop offset="1" style="stop-color:rgb(163,94,221);stop-opacity:1"/></linearGradient>
    </defs>
</svg>
