<?xml version="1.0" encoding="UTF-8" standalone="no"?>
<!DOCTYPE svg PUBLIC "-//W3C//DTD SVG 1.1//EN" "http://www.w3.org/Graphics/SVG/1.1/DTD/svg11.dtd">
<svg width="100%" height="100%" viewBox="0 0 256 256" version="1.1" xmlns="http://www.w3.org/2000/svg" xmlns:xlink="http://www.w3.org/1999/xlink" xml:space="preserve" xmlns:serif="http://www.serif.com/" style="fill-rule:evenodd;clip-rule:evenodd;stroke-linejoin:round;stroke-miterlimit:2;">
    <g transform="matrix(5.33333,0,0,5.33333,1.06581e-14,0)">
        <path d="M45.5,0L2.5,0L6.3,42.9L24,48L41.7,42.9L45.5,0Z" style="fill:rgb(230,81,0);fill-rule:nonzero;"/>
    </g>
    <g transform="matrix(5.33333,0,0,5.33333,1.06581e-14,0)">
        <path d="M24,3.8L24,44.1L38.1,40.1L41.3,3.8L24,3.8Z" style="fill:rgb(255,109,0);fill-rule:nonzero;"/>
    </g>
    <g transform="matrix(5.33333,0,0,5.33333,1.06581e-14,0)">
        <path d="M24,25.3L24,20.2L34.9,20.2L34,34.7L24,38L24,32.7L29.2,30.9L29.6,25.2C29.6,25.3 24,25.3 24,25.3ZM35.2,15.2L35.6,10.1L24,10.1L24,15.2L35.2,15.2Z" style="fill:white;fill-rule:nonzero;"/>
    </g>
    <g transform="matrix(5.33333,0,0,5.33333,1.06581e-14,0)">
        <path d="M24,32.7L24,38L14,34.7L13.5,27.8L18.6,27.8L18.9,31L24,32.7ZM17.8,15.2L24,15.2L24,10.1L12.5,10.1L13.4,25.3L24,25.3L24,20.2L18.2,20.2L17.8,15.2Z" style="fill:rgb(238,238,238);fill-rule:nonzero;"/>
    </g>
</svg>
