<?xml version="1.0" encoding="UTF-8" standalone="no"?>
<!DOCTYPE svg PUBLIC "-//W3C//DTD SVG 1.1//EN" "http://www.w3.org/Graphics/SVG/1.1/DTD/svg11.dtd">
<svg width="100%" height="100%" viewBox="0 0 256 256" version="1.1" xmlns="http://www.w3.org/2000/svg" xmlns:xlink="http://www.w3.org/1999/xlink" xml:space="preserve" xmlns:serif="http://www.serif.com/" style="fill-rule:evenodd;clip-rule:evenodd;stroke-linejoin:round;stroke-miterlimit:2;">
    <g transform="matrix(5.33333,0,0,5.33333,0,0.18818)">
        <circle cx="24" cy="24" r="4.3" style="fill:rgb(0,216,255);"/>
    </g>
    <g transform="matrix(5.33333,0,0,5.33333,0,0.18818)">
        <path d="M24,33.8C18,33.8 12.7,33.1 8.7,31.7C6.1,30.8 4,29.7 2.4,28.3C0.8,27 0,25.4 0,24C0,21.2 3.1,18.4 8.3,16.6C12.6,15.1 18.2,14.3 24,14.3C29.7,14.3 35.2,15.1 39.5,16.6C42,17.5 44.1,18.6 45.6,19.8C47.2,21 48,22.5 48,24C48,27 44.5,29.9 38.9,31.8C35,33.1 29.7,33.8 24,33.8ZM24,16.3C18.5,16.3 13,17.1 9,18.5C4.2,20.2 2,22.5 2,24C2,25.6 4.3,28.1 9.4,29.8C13.1,31.1 18.2,31.8 24,31.8C29.4,31.8 34.5,31.1 38.3,29.9C43.6,28 46,25.5 46,24C46,23.2 45.4,22.2 44.3,21.3C43,20.2 41.1,19.2 38.9,18.5C34.8,17 29.5,16.3 24,16.3Z" style="fill:rgb(0,216,255);fill-rule:nonzero;"/>
    </g>
    <g transform="matrix(5.33333,0,0,5.33333,0,0.18818)">
        <path d="M14.3,45.4C13.4,45.4 12.7,45.2 12,44.8C9.5,43.4 8.7,39.3 9.7,33.9C10.5,29.4 12.6,24.2 15.5,19.1C18.4,14.1 21.8,9.8 25.2,6.8C27.2,5.1 29.2,3.8 31,3.1C33,2.4 34.7,2.4 35.9,3.1C38.5,4.6 39.3,9.1 38.1,14.9C37.3,19 35.2,24 32.4,28.9C29.4,34.1 26.1,38.3 23,41.1C21,42.9 18.9,44.2 16.9,44.9C16,45.2 15.1,45.4 14.3,45.4ZM17.3,20.1C14.5,24.9 12.5,30 11.7,34.2C10.7,39.2 11.7,42.2 13,43C13.3,43.2 13.8,43.3 14.3,43.3C16,43.3 18.7,42.2 21.8,39.5C24.8,36.9 27.9,32.9 30.8,27.8C33.5,23.1 35.5,18.3 36.3,14.4C37.4,8.9 36.5,5.6 35.1,4.8C34.4,4.4 33.3,4.4 31.9,5C30.3,5.6 28.5,6.7 26.7,8.3C23.4,11.2 20.1,15.4 17.3,20.1" style="fill:rgb(0,216,255);fill-rule:nonzero;"/>
    </g>
    <g transform="matrix(5.33333,0,0,5.33333,0,0.18818)">
        <path d="M33.7,45.4C31.4,45.4 28.4,44 25.3,41.3C21.9,38.3 18.4,33.9 15.4,28.9C12.5,23.9 10.5,18.8 9.6,14.3C9.1,11.7 9,9.3 9.3,7.4C9.7,5.3 10.5,3.8 11.8,3.1C14.4,1.6 18.7,3.1 23.1,7.1C26.2,9.9 29.5,14.1 32.4,19C35.4,24.2 37.5,29.1 38.3,33.2C38.8,35.9 38.9,38.3 38.5,40.3C38.1,42.4 37.2,43.9 35.9,44.7C35.3,45.2 34.6,45.4 33.7,45.4ZM17.3,27.9C20.1,32.7 23.5,37 26.7,39.8C30.6,43.1 33.6,43.8 35,43.1C36.4,42.3 37.4,39 36.3,33.8C35.5,29.9 33.6,25.2 30.7,20.2C28,15.5 24.8,11.4 21.9,8.8C17.7,5 14.3,4.2 12.9,5C12.2,5.4 11.7,6.4 11.4,7.9C11.1,9.6 11.2,11.7 11.7,14C12.5,18.1 14.5,23.1 17.3,27.9Z" style="fill:rgb(0,216,255);fill-rule:nonzero;"/>
    </g>
</svg>
