<?xml version="1.0" encoding="UTF-8" standalone="no"?>
<!DOCTYPE svg PUBLIC "-//W3C//DTD SVG 1.1//EN" "http://www.w3.org/Graphics/SVG/1.1/DTD/svg11.dtd">
<svg width="100%" height="100%" viewBox="0 0 256 256" version="1.1" xmlns="http://www.w3.org/2000/svg" xmlns:xlink="http://www.w3.org/1999/xlink" xml:space="preserve" xmlns:serif="http://www.serif.com/" style="fill-rule:evenodd;clip-rule:evenodd;stroke-linejoin:round;stroke-miterlimit:10;">
    <g transform="matrix(1.4143,0,0,1.4143,-22.5131,-32.0144)">
        <path d="M63.02,200.61L19.807,25.67L193.037,75.544L63.02,200.61Z" style="fill:white;stroke:black;stroke-width:4px;"/>
    </g>
    <g transform="matrix(1.4143,0,0,1.4143,-22.5131,-32.0144)">
        <path d="M106.39,50.612L127.981,138.108L41.414,113.163L106.39,50.612Z" style="fill:white;stroke:black;stroke-width:4px;"/>
    </g>
    <g transform="matrix(1.4143,0,0,1.4143,-22.5131,-32.0144)">
        <path d="M84.91,125.03L74.186,81.565L117.194,93.911L84.91,125.03Z" style="fill:white;stroke:black;stroke-width:4px;"/>
    </g>
    <g transform="matrix(1.4143,0,0,1.4143,-22.5131,-32.0144)">
        <path d="M63.458,38.153L74.182,81.618L31.174,69.272L63.458,38.153Z" style="fill:white;stroke:black;stroke-width:4px;"/>
    </g>
    <g transform="matrix(1.4143,0,0,1.4143,-22.5131,-32.0144)">
        <path d="M149.47,62.93L160.194,106.395L117.186,94.049L149.47,62.93Z" style="fill:white;stroke:black;stroke-width:4px;"/>
    </g>
    <g transform="matrix(1.4143,0,0,1.4143,-22.5131,-32.0144)">
        <path d="M84.915,125.06L95.639,168.525L52.631,156.179L84.915,125.06Z" style="fill:white;stroke:black;stroke-width:4px;"/>
    </g>
</svg>
