<?xml version="1.0" encoding="UTF-8" standalone="no"?>
<!DOCTYPE svg PUBLIC "-//W3C//DTD SVG 1.1//EN" "http://www.w3.org/Graphics/SVG/1.1/DTD/svg11.dtd">
<svg width="100%" height="100%" viewBox="0 0 256 256" version="1.1" xmlns="http://www.w3.org/2000/svg" xmlns:xlink="http://www.w3.org/1999/xlink" xml:space="preserve" xmlns:serif="http://www.serif.com/" style="fill-rule:evenodd;clip-rule:evenodd;stroke-linejoin:round;stroke-miterlimit:2;">
    <g transform="matrix(5.33333,0,0,5.33333,0,0)">
        <rect x="0" y="0" width="48" height="48" style="fill:rgb(25,118,210);"/>
    </g>
    <g transform="matrix(5.33333,0,0,5.33333,0,0)">
        <path d="M28.7,21.3L11,21.3L11,25.7L17.3,25.7L17.3,45.3L22.3,45.3L22.3,25.7L28.7,25.7L28.7,21.3Z" style="fill:white;fill-rule:nonzero;"/>
    </g>
    <g transform="matrix(5.33333,0,0,5.33333,0,0)">
        <path d="M44.3,26.8C44.3,26.8 41.9,25.2 39.2,25.2C36.5,25.2 35.5,26.5 35.5,27.8C35.5,31.3 45.3,31 45.3,38.1C45.3,49 30.3,44.2 30.3,44.2L30.3,39C30.3,39 33.2,41.2 36.6,41.2C40,41.2 39.9,38.9 39.9,38.6C39.9,35.3 30.1,35.3 30.1,28.1C30.1,18.3 44.3,22.1 44.3,22.1L44.3,26.8Z" style="fill:white;fill-rule:nonzero;"/>
    </g>
</svg>
