<?xml version="1.0" encoding="UTF-8" standalone="no"?>
<!DOCTYPE svg PUBLIC "-//W3C//DTD SVG 1.1//EN" "http://www.w3.org/Graphics/SVG/1.1/DTD/svg11.dtd">
<svg width="100%" height="100%" viewBox="0 0 256 256" version="1.1" xmlns="http://www.w3.org/2000/svg" xmlns:xlink="http://www.w3.org/1999/xlink" xml:space="preserve" xmlns:serif="http://www.serif.com/" style="fill-rule:evenodd;clip-rule:evenodd;stroke-linejoin:round;stroke-miterlimit:2;">
    <g transform="matrix(5.33333,0,0,5.33333,0,0)">
        <path d="M5.7,15.6L8.3,15.6L8.3,27.8C7,28.1 6,28.2 4.9,28.2C1.7,28.2 0,26.8 0,24C0,21.3 1.8,19.6 4.5,19.6C4.9,19.6 5.2,19.6 5.6,19.7C5.7,19.6 5.7,15.6 5.7,15.6ZM5.7,21.7C5.4,21.6 5.1,21.6 4.8,21.6C3.5,21.6 2.7,22.4 2.7,23.8C2.7,25.2 3.4,26 4.8,26C5.1,26 5.3,26 5.7,25.9L5.7,21.7Z" style="fill:rgb(9,46,32);fill-rule:nonzero;"/>
    </g>
    <g transform="matrix(5.33333,0,0,5.33333,0,0)">
        <path d="M12.5,19.6L12.5,25.8C12.5,27.9 12.3,28.9 11.9,29.8C11.5,30.6 10.9,31.2 9.8,31.7L7.4,30.5C8.6,30 9.1,29.5 9.5,28.7C9.9,28 10,27.1 10,24.8L10,19.6L12.5,19.6ZM9.8,15.6L12.4,15.6L12.4,18.3L9.8,18.3L9.8,15.6Z" style="fill:rgb(9,46,32);fill-rule:nonzero;"/>
    </g>
    <g transform="matrix(5.33333,0,0,5.33333,0,0)">
        <path d="M14,20.3C15.2,19.8 16.3,19.5 17.5,19.5C18.8,19.5 19.7,19.9 20.1,20.6C20.3,21 20.4,21.5 20.4,22.6L20.4,27.9C19.2,28.1 17.7,28.2 16.6,28.2C14.4,28.2 13.4,27.4 13.4,25.7C13.4,23.9 14.7,23 17.9,22.7L17.9,22.1C17.9,21.6 17.7,21.5 17,21.5C16,21.5 14.9,21.8 13.9,22.3L14,20.3ZM18.2,24.4C16.5,24.6 15.9,24.8 15.9,25.5C15.9,26 16.2,26.2 16.9,26.2C17.3,26.2 17.6,26.2 18.2,26.1C18.2,26.2 18.2,24.4 18.2,24.4Z" style="fill:rgb(9,46,32);fill-rule:nonzero;"/>
    </g>
    <g transform="matrix(5.33333,0,0,5.33333,0,0)">
        <path d="M21.7,20.1C23.3,19.7 24.5,19.5 25.8,19.5C27.1,19.5 28.1,19.8 28.7,20.4C29.2,21 29.4,21.6 29.4,22.9L29.4,28L26.8,28L26.8,23C26.8,22 26.5,21.6 25.5,21.6C25.1,21.6 24.8,21.6 24.3,21.8L24.3,28L21.7,28L21.7,20.1Z" style="fill:rgb(9,46,32);fill-rule:nonzero;"/>
    </g>
    <g transform="matrix(5.33333,0,0,5.33333,0,0)">
        <path d="M30.5,29.5C31.4,30 32.3,30.2 33.3,30.2C35,30.2 35.8,29.5 35.8,27.8L35.8,27.7C35.3,28 34.8,28.1 34.1,28.1C31.8,28.1 30.3,26.6 30.3,24.2C30.3,21.2 32.5,19.5 36.3,19.5C37.4,19.5 38.5,19.6 39.7,19.9L38.8,21.8C38.1,21.7 38.7,21.8 38.2,21.7L38.2,26.3C38.2,28.6 38,29.6 37.5,30.5C36.7,31.8 35.3,32.4 33.3,32.4C32.3,32.4 31.4,32.2 30.5,31.9L30.5,29.5ZM35.7,21.6C35.7,21.6 35.6,21.6 35.7,21.6L35.4,21.6C34.9,21.6 34.3,21.7 33.9,22C33.3,22.4 32.9,23 32.9,23.9C32.9,25.2 33.5,26 34.7,26C35.1,26 35.3,25.9 35.7,25.8L35.7,21.6Z" style="fill:rgb(9,46,32);fill-rule:nonzero;"/>
    </g>
    <g transform="matrix(5.33333,0,0,5.33333,0,0)">
        <path d="M43.8,19.4C46.4,19.4 48,21.1 48,23.7C48,26.4 46.3,28.2 43.7,28.2C41.1,28.2 39.5,26.5 39.5,23.9C39.4,21.2 41.1,19.4 43.8,19.4ZM43.7,26.1C44.7,26.1 45.3,25.3 45.3,23.8C45.3,22.4 44.7,21.5 43.7,21.5C42.7,21.5 42.1,22.3 42.1,23.8C42.1,25.3 42.7,26.1 43.7,26.1Z" style="fill:rgb(9,46,32);fill-rule:nonzero;"/>
    </g>
</svg>
