<?xml version="1.0" encoding="UTF-8" standalone="no"?><!DOCTYPE svg PUBLIC "-//W3C//DTD SVG 1.1//EN" "http://www.w3.org/Graphics/SVG/1.1/DTD/svg11.dtd"><svg width="100%" height="100%" viewBox="0 0 256 256" version="1.1" xmlns="http://www.w3.org/2000/svg" xmlns:xlink="http://www.w3.org/1999/xlink" xml:space="preserve" xmlns:serif="http://www.serif.com/" style="fill-rule:evenodd;clip-rule:evenodd;stroke-linejoin:round;stroke-miterlimit:2;"><path d="M255.39,210.858c-0.51,-0.387 -1.17,-0.52 -1.79,-0.359c-13.435,-19.78 -30.629,-38.495 -47.111,-56.671l-2.689,-3.028c-0.007,-0.331 -0.135,-0.648 -0.359,-0.892c-0.313,-0.297 -0.676,-0.538 -1.071,-0.712l-0.539,-0.533l-0.359,-0.359c-0.539,-1.071 -1.797,-1.784 -3.048,-1.071c-5.017,2.502 -9.669,6.242 -14.153,9.803c-5.903,4.632 -11.818,9.271 -17.374,14.436c-2.272,2.018 -4.369,4.224 -6.269,6.595c-0.898,1.245 -0.179,2.316 0.899,2.849c-3.946,3.92 -7.892,7.846 -11.825,11.939c-0.36,0.388 -0.553,0.902 -0.539,1.431c0,0.533 0.36,1.065 0.712,1.245l6.994,5.344l-0,0.18c9.848,9.803 27.228,23.167 45.68,37.603c2.682,2.143 5.55,4.279 8.238,6.416c1.251,1.431 2.502,3.035 3.58,4.459c0.539,0.706 1.797,0.892 2.509,0.353c0.359,0.359 0.898,0.712 1.257,1.071c0.326,0.198 0.692,0.321 1.072,0.359c0.57,0.03 1.116,-0.24 1.437,-0.712c0.197,-0.326 0.317,-0.692 0.353,-1.071c0.186,-0 0.18,0.179 0.359,0.179c0.531,0.015 1.047,-0.179 1.437,-0.538l32.605,-35.467c0.386,-0.373 0.604,-0.888 0.604,-1.424c-0,-0.537 -0.218,-1.051 -0.604,-1.425l-0.006,0Zm-93.863,-12.299c0.179,0.341 0.421,0.646 0.712,0.898c3.759,3.208 7.699,6.416 11.824,9.977l-16.482,-12.479l-1.61,-1.065c-0.36,-0.179 -0.719,-0.539 -1.078,-0.712l-1.251,-1.071l0.712,-0.713l0.718,-0.712c5.556,-5.524 15.052,-14.795 19.889,-19.427c-5.196,5.165 -15.59,20.319 -13.441,25.304l0.007,0Zm56.247,44.205l-13.614,-10.342c-5.395,-5.572 -11.013,-10.923 -16.842,-16.04c7.346,5.524 13.615,10.336 14.513,11.228c7.166,6.236 6.801,5.171 11.645,9.271l5.908,4.273c-0.443,0.621 -0.987,1.163 -1.61,1.604l0,0.006Zm3.58,2.669l-0.359,-0.18c0.539,-0.352 1.078,-0.712 1.617,-1.244l-1.258,1.424Zm-214.968,-208.694c0.353,2.316 0.898,4.633 1.251,6.775c2.149,11.761 4.298,22.456 8.238,30.476l1.616,6.056c0.539,2.316 1.431,5.171 2.329,5.883c9.137,8.02 23.11,19.954 38.155,31.367c0.682,0.533 1.647,0.533 2.329,0c0.682,-0.532 0,0.174 0.18,0.174c0.319,0.355 0.78,0.552 1.257,0.539c0.529,0.012 1.042,-0.181 1.431,-0.539c19.171,-21.205 33.497,-38.669 43.711,-53.284c0.719,-0.712 0.898,-1.783 0.898,-2.675c0.712,-0.712 1.251,-1.604 1.97,-2.137c0.712,-0.712 0.712,-1.963 -0,-2.502l-0.18,-0.173c0,-0.353 -0.179,-0.892 -0.539,-1.072c-4.478,-4.272 -7.699,-7.301 -11.105,-10.509c-5.916,-5.53 -12.004,-11.227 -24.9,-24.059l-0.18,-0.18c-0.179,-0.179 -0.359,-0.359 -0.718,-0.359c-3.58,-1.245 -10.927,-2.496 -20.063,-4.1c-13.614,-2.309 -32.072,-5.517 -48.728,-10.515c0,-0 -1.078,-0 -1.257,0.18l-0.533,0.538c-0.179,0.174 -0.359,0.353 -1.437,0.706l0.359,0l-0.359,0c0.18,1.072 0.18,1.784 0.539,3.035c-0,0.353 0.719,3.208 0.719,3.561l5.017,22.814Zm99.419,21.031l-2.149,-2.143c0.539,0.719 1.257,1.252 2.149,2.143Zm-22.75,29.937l-0.36,0.359c0,-0.18 0.18,-0.359 0.36,-0.359Zm-13.076,-64.159c1.078,1.072 5.556,5.351 6.628,6.243c-4.658,-2.143 -16.296,-7.487 -21.679,-9.271c5.376,1.072 12.722,2.143 15.051,3.028Zm-61.444,-8.905c2.688,4.632 4.838,20.672 6.987,36.352c-1.258,-4.991 -2.149,-9.976 -3.227,-14.615c-1.611,-8.193 -3.228,-15.501 -5.377,-21.916c0.359,-0 0.898,-0 1.617,0.179Zm-1.078,-3.747c-0.718,0 -1.431,-0.179 -1.97,-0.179c0,-0.173 0,-0.353 -0.179,-0.353c0.898,-0 1.431,0.18 2.149,0.532Zm-6.987,1.425c0,-0.174 0,-0.174 0,-0Zm252.052,-3.92c0.18,-0.706 -3.58,-3.914 -2.329,-4.1c2.695,-0.173 2.695,-4.273 0,-4.273c-3.58,0.18 -7.339,1.065 -10.746,1.604c-6.268,1.245 -12.716,2.496 -18.991,3.914c-14.147,3.034 -28.121,6.242 -42.094,9.989c-4.299,1.245 -9.136,2.137 -13.255,4.273c-1.437,0.712 -1.258,2.136 -0.539,3.028c-0.36,0.18 -0.539,0.18 -0.898,0.36c-1.252,0.179 -2.329,0.359 -3.581,0.532c-1.077,0.18 -1.616,1.071 -1.437,2.143c0,0.173 0.18,0.532 0.18,0.706c-7.526,9.983 -15.943,20.498 -25.079,31.726c-8.957,10.336 -18.452,21.211 -27.948,32.438c-30.276,35.287 -64.492,75.386 -102.287,110.673c-0.343,0.325 -0.537,0.776 -0.537,1.248c0,0.472 0.194,0.923 0.537,1.248c0.179,0.173 0.359,0.353 0.539,0.353c-0.539,0.539 -1.078,0.898 -1.617,1.424c-0.359,0.359 -0.539,0.712 -0.539,1.072c-0.28,0.26 -0.52,0.561 -0.712,0.891c-0.719,0.713 -0.719,1.957 0.18,2.496c0.712,0.706 1.969,0.706 2.502,-0.18c0.186,-0.179 0.186,-0.359 0.359,-0.359c1.09,-1.065 2.856,-1.065 3.946,0c2.149,2.323 4.298,4.639 6.268,6.596l-4.478,-3.741c-0.719,-0.712 -1.97,-0.532 -2.502,0.18c-0.725,0.706 -0.546,1.957 0.173,2.496l47.65,39.739c0.359,0.36 0.719,0.36 1.258,0.36c0.538,-0 0.898,-0.18 1.251,-0.539l1.077,-1.065c0.18,0.173 0.533,0.173 0.713,0.173c0.539,-0 0.898,-0.173 1.257,-0.533c64.492,-64.511 116.447,-113.168 175.922,-156.655c0.532,-0.353 0.712,-1.065 0.712,-1.604c0.719,0 1.258,-0.532 1.61,-1.244c10.933,-33.324 13.082,-62.914 13.794,-77.523l0,-0.179c0,-0.18 0.18,-0.36 0.18,-0.533c0.18,-0.359 0.18,-0.539 0.18,-0.539c0.486,-2.217 0.236,-4.533 -0.712,-6.595l-0.007,-0Zm-115.363,52.398c2.862,-3.208 5.73,-6.596 8.598,-9.624c-18.452,24.239 -49.081,61.483 -92.44,105.861c29.558,-32.612 59.295,-66.295 83.842,-96.237Zm-104.443,168.595l0.539,-0l-0.539,-0Zm22.212,20.492c-0.173,-0.18 -0.173,-0.18 -0,-0.18l-0,0.18Zm26.69,-22.988c1.437,-1.604 2.874,-3.028 4.484,-4.632c0,-0 0,0.173 0.18,0.173c-1.617,1.431 -3.048,2.855 -4.658,4.459l-0.006,-0Zm7.352,-7.128c0.898,-0.898 1.79,-2.143 2.862,-3.208l0.179,-0.18c10.573,-10.868 21.5,-21.743 32.605,-32.791l0.18,-0.18c2.688,-2.136 5.909,-4.452 8.777,-6.595c-15.049,14.128 -29.918,28.447 -44.603,42.954Zm69.503,-178.398c-5.909,7.666 -12.537,17.823 -18.093,25.842c-17.554,25.304 -73.987,87.147 -75.238,88.218c-17.153,16.385 -34.352,32.722 -51.596,49.01l-1.072,1.072c-0.898,-1.072 -0.898,-2.676 0.18,-3.567c79.71,-74.674 128.085,-136.869 147.615,-164.136c-0.539,1.244 -0.898,2.309 -1.796,3.561Zm30.988,36.538c-7.16,-4.106 -10.56,-10.522 -8.597,-16.752l0.539,-2.143c0.179,-0.532 0.539,-1.245 0.898,-1.777c1.97,-3.208 4.838,-5.883 8.065,-7.487c0.173,-0 0.353,-0 0.532,-0.18c-0.179,-0.359 -0.179,-0.892 -0.179,-1.424c0.179,-1.072 0.898,-1.784 2.149,-1.784c2.149,0 8.783,1.963 11.292,4.1c0.712,0.532 1.43,1.244 2.149,1.957c0.898,1.071 2.329,2.855 3.041,4.279c0.359,0.18 0.719,1.963 1.258,2.855c0.359,1.424 0.712,3.028 0.539,4.453c-0.18,0.179 -0,1.244 -0.18,1.244c-0.314,2.336 -1.107,4.581 -2.329,6.596c-0.18,0.179 -0.18,0.359 -0.359,0.539l-0.18,0.173c-0.898,1.431 -2.149,2.675 -3.4,3.567c-4.126,2.849 -8.784,3.74 -13.441,2.496c-0,-0 -1.252,-0.539 -1.797,-0.712Zm52.315,-5.351c-1.624,6.85 -3.536,13.629 -5.73,20.319c0,0.179 -0.179,0.532 0,0.712c-0.359,-0 -0.539,0.18 -0.898,0.359c-14.153,10.33 -27.947,21.204 -41.741,32.259c11.824,-10.522 23.649,-21.211 36.012,-31.726c3.58,-3.208 6.088,-7.308 6.801,-11.94l1.796,-10.695l0,-0.353c0.898,-2.143 4.299,-1.251 3.76,1.065Z" style="fill:#6965db;fill-rule:nonzero;"/></svg>