<?xml version="1.0" encoding="UTF-8" standalone="no"?>
<!DOCTYPE svg PUBLIC "-//W3C//DTD SVG 1.1//EN" "http://www.w3.org/Graphics/SVG/1.1/DTD/svg11.dtd">
<svg width="100%" height="100%" viewBox="0 0 256 256" version="1.1" xmlns="http://www.w3.org/2000/svg" xmlns:xlink="http://www.w3.org/1999/xlink" xml:space="preserve" xmlns:serif="http://www.serif.com/" style="fill-rule:evenodd;clip-rule:evenodd;stroke-linejoin:round;stroke-miterlimit:2;">
    <g transform="matrix(5.33333,0,0,5.33333,-1.42109e-14,0)">
        <path d="M16,48C20.4,48 24,44.4 24,40L24,32L16,32C11.6,32 8,35.6 8,40C8,44.4 11.6,48 16,48Z" style="fill:rgb(10,207,131);fill-rule:nonzero;"/>
    </g>
    <g transform="matrix(5.33333,0,0,5.33333,-1.42109e-14,0)">
        <path d="M8,24C8,19.6 11.6,16 16,16L24,16L24,32L16,32C11.6,32 8,28.4 8,24Z" style="fill:rgb(162,89,255);fill-rule:nonzero;"/>
    </g>
    <g transform="matrix(5.33333,0,0,5.33333,-1.42109e-14,0)">
        <path d="M8,8C8,3.6 11.6,0 16,0L24,0L24,16L16,16C11.6,16 8,12.4 8,8Z" style="fill:rgb(242,78,30);fill-rule:nonzero;"/>
    </g>
    <g transform="matrix(5.33333,0,0,5.33333,-1.42109e-14,0)">
        <path d="M24,0L32,0C36.4,0 40,3.6 40,8C40,12.4 36.4,16 32,16L24,16L24,0Z" style="fill:rgb(255,114,98);fill-rule:nonzero;"/>
    </g>
    <g transform="matrix(5.33333,0,0,5.33333,-1.42109e-14,0)">
        <path d="M40,24C40,28.4 36.4,32 32,32C27.6,32 24,28.4 24,24C24,19.6 27.6,16 32,16C36.4,16 40,19.6 40,24Z" style="fill:rgb(26,188,254);fill-rule:nonzero;"/>
    </g>
</svg>
