<?xml version="1.0" encoding="UTF-8" standalone="no"?><!DOCTYPE svg PUBLIC "-//W3C//DTD SVG 1.1//EN" "http://www.w3.org/Graphics/SVG/1.1/DTD/svg11.dtd"><svg width="100%" height="100%" viewBox="0 0 256 256" version="1.1" xmlns="http://www.w3.org/2000/svg" xmlns:xlink="http://www.w3.org/1999/xlink" xml:space="preserve" xmlns:serif="http://www.serif.com/" style="fill-rule:evenodd;clip-rule:evenodd;stroke-linejoin:round;stroke-miterlimit:2;"><path d="M85.333,256c23.467,0 42.667,-19.2 42.667,-42.667l-0,-42.666l-42.667,-0c-23.466,-0 -42.666,19.2 -42.666,42.666c-0,23.467 19.2,42.667 42.666,42.667Z" style="fill:#0acf83;fill-rule:nonzero;"/><path d="M42.667,128c-0,-23.467 19.2,-42.667 42.666,-42.667l42.667,0l-0,85.334l-42.667,-0c-23.466,-0 -42.666,-19.2 -42.666,-42.667Z" style="fill:#a259ff;fill-rule:nonzero;"/><path d="M42.667,42.667c-0,-23.467 19.2,-42.667 42.666,-42.667l42.667,0l-0,85.333l-42.667,0c-23.466,0 -42.666,-19.2 -42.666,-42.666Z" style="fill:#f24e1e;fill-rule:nonzero;"/><path d="M128,0l42.667,0c23.466,0 42.666,19.2 42.666,42.667c0,23.466 -19.2,42.666 -42.666,42.666l-42.667,0l-0,-85.333Z" style="fill:#ff7262;fill-rule:nonzero;"/><path d="M213.333,128c0,23.467 -19.2,42.667 -42.666,42.667c-23.467,-0 -42.667,-19.2 -42.667,-42.667c-0,-23.467 19.2,-42.667 42.667,-42.667c23.466,0 42.666,19.2 42.666,42.667Z" style="fill:#1abcfe;fill-rule:nonzero;"/></svg>