<?xml version="1.0" encoding="UTF-8" standalone="no"?>
<!DOCTYPE svg PUBLIC "-//W3C//DTD SVG 1.1//EN" "http://www.w3.org/Graphics/SVG/1.1/DTD/svg11.dtd">
<svg width="100%" height="100%" viewBox="0 0 256 256" version="1.1" xmlns="http://www.w3.org/2000/svg" xmlns:xlink="http://www.w3.org/1999/xlink" xml:space="preserve" xmlns:serif="http://www.serif.com/" style="fill-rule:evenodd;clip-rule:evenodd;stroke-linejoin:round;stroke-miterlimit:2;">
    <g transform="matrix(5.33333,0,0,5.33333,0,0)">
        <rect x="0" y="0" width="48" height="48" style="fill:rgb(255,214,0);fill-rule:nonzero;"/>
    </g>
    <g transform="matrix(5.33333,0,0,5.33333,0,0)">
        <path d="M31.4,35.9C32.3,37.4 33.3,38.8 35.4,38.8C37.2,38.8 38.1,37.9 38.1,36.7C38.1,35.2 37.1,34.7 35.2,33.9L34.1,33.4C31,32.1 29,30.5 29,27C29,23.8 31.5,21.3 35.3,21.3C38,21.3 40,22.2 41.4,24.7L38,26.8C37.3,25.5 36.5,25 35.2,25C33.9,25 33.1,25.8 33.1,26.8C33.1,28.1 33.9,28.6 35.7,29.4L36.8,29.9C40.5,31.5 42.5,33.1 42.5,36.6C42.5,40.5 39.5,42.6 35.4,42.6C31.4,42.6 29.1,40.6 27.9,38.1L31.4,35.9ZM15.9,36C16.6,37.2 17.6,38.1 19.1,38.1C20.5,38.1 21.3,37.5 21.3,35.4L21.3,21.3L25.7,21.3L25.7,36.1C25.7,40.6 23.1,42.6 19.3,42.6C15.9,42.6 13.4,40.3 12.4,38.1L15.9,36Z" style="fill:rgb(0,0,1);fill-rule:nonzero;"/>
    </g>
</svg>
