<?xml version="1.0" encoding="UTF-8" standalone="no"?>
<!DOCTYPE svg PUBLIC "-//W3C//DTD SVG 1.1//EN" "http://www.w3.org/Graphics/SVG/1.1/DTD/svg11.dtd">
<svg width="100%" height="100%" viewBox="0 0 256 256" version="1.1" xmlns="http://www.w3.org/2000/svg" xmlns:xlink="http://www.w3.org/1999/xlink" xml:space="preserve" xmlns:serif="http://www.serif.com/" style="fill-rule:evenodd;clip-rule:evenodd;stroke-linejoin:round;stroke-miterlimit:2;">
    <g transform="matrix(5.34087,0,0,5.34087,-0.180908,-0.434087)">
        <path d="M23.6,25.1C22.4,23.2 21.5,21.6 20.3,18.6C18.3,13.5 32.7,8.9 26.8,0.1C29.3,6.2 17.7,10 16.6,15.1C15.7,19.6 23.6,25.1 23.6,25.1Z" style="fill:rgb(244,67,54);fill-rule:nonzero;"/>
    </g>
    <g transform="matrix(5.34087,0,0,5.34087,-0.180908,-0.434087)">
        <path d="M23.9,15.9C23.7,18.9 26.6,20.5 26.7,22.7C26.8,24.5 25,26 25,26C25,26 28.3,25.4 29.3,22.6C30.4,19.6 27.1,17.5 27.4,15C27.7,12.7 34.6,8.3 34.6,8.3C34.6,8.3 24.4,9.1 23.9,15.9Z" style="fill:rgb(244,67,54);fill-rule:nonzero;"/>
    </g>
    <g transform="matrix(5.34087,0,0,5.34087,-0.180908,-0.434087)">
        <path d="M33.7,25.3C35.8,24.8 37.6,26.2 37.6,27.7C37.6,31.2 32.8,34.5 32.8,34.5C32.8,34.5 40.3,33.6 40.3,27.9C40.2,24.1 36.6,23.1 33.7,25.3ZM30.2,28.1C30.2,28.1 32.5,26.4 33.1,25.8C27.4,27 14.3,27.2 14.3,26.1C14.3,25.1 18.5,24.1 18.5,24.1C18.5,24.1 9.2,24 9.2,26.8C9.2,29.6 21.4,29.8 30.2,28.1Z" style="fill:rgb(21,101,192);fill-rule:nonzero;"/>
    </g>
    <g transform="matrix(5.34087,0,0,5.34087,-0.180908,-0.434087)">
        <path d="M28.7,30.7C23.3,32.5 13.3,31.9 16.3,29.5C14.9,29.5 12.7,30.7 12.7,31.8C12.7,34 23.5,35.7 31.5,32.5L28.7,30.7Z" style="fill:rgb(21,101,192);fill-rule:nonzero;"/>
    </g>
    <g transform="matrix(5.34087,0,0,5.34087,-0.180908,-0.434087)">
        <path d="M17.6,34.5C15.6,34.5 14.4,35.8 14.4,36.7C14.4,39.6 26.1,39.9 30.8,36.9L27.9,34.9C24.3,36.5 15.6,36.7 17.6,34.5Z" style="fill:rgb(21,101,192);fill-rule:nonzero;"/>
    </g>
    <g transform="matrix(5.34087,0,0,5.34087,-0.180908,-0.434087)">
        <path d="M38.7,39.2C38.7,38.1 37.4,37.5 37,37.3C39.7,43.7 10.2,43.2 10.2,39.4C10.2,38.5 12.4,37.7 14.4,38.1L12.7,37.1C8.7,36.5 6,38.2 6,39.6C6,46.2 38.7,45.9 38.7,39.2Z" style="fill:rgb(21,101,192);fill-rule:nonzero;"/>
    </g>
    <g transform="matrix(5.34087,0,0,5.34087,-0.180908,-0.434087)">
        <path d="M42,41.5C37,46.4 24.4,48.2 11.7,45.2C24.4,50.6 41.9,47.6 42,41.5Z" style="fill:rgb(21,101,192);fill-rule:nonzero;"/>
    </g>
</svg>
