<?xml version="1.0" encoding="UTF-8" standalone="no"?>
<!DOCTYPE svg PUBLIC "-//W3C//DTD SVG 1.1//EN" "http://www.w3.org/Graphics/SVG/1.1/DTD/svg11.dtd">
<svg width="100%" height="100%" viewBox="0 0 256 256" version="1.1" xmlns="http://www.w3.org/2000/svg" xmlns:xlink="http://www.w3.org/1999/xlink" xml:space="preserve" xmlns:serif="http://www.serif.com/" style="fill-rule:evenodd;clip-rule:evenodd;stroke-linejoin:round;stroke-miterlimit:2;">
    <g transform="matrix(5.33333,0,0,5.33333,0,0)">
        <path d="M12,19.2C13.6,12.8 17.6,9.6 24,9.6C33.6,9.6 34.8,16.8 39.6,18C42.8,18.8 45.6,17.6 48,14.4C46.4,20.8 42.4,24 36,24C26.4,24 25.2,16.8 20.4,15.6C17.2,14.8 14.4,16 12,19.2ZM0,33.6C1.6,27.2 5.6,24 12,24C21.6,24 22.8,31.2 27.6,32.4C30.8,33.2 33.6,32 36,28.8C34.4,35.2 30.4,38.4 24,38.4C14.4,38.4 13.2,31.2 8.4,30C5.2,29.2 2.4,30.4 0,33.6Z" style="fill:url(#_Linear1);"/>
    </g>
    <defs>
        <linearGradient id="_Linear1" x1="0" y1="0" x2="1" y2="0" gradientUnits="userSpaceOnUse" gradientTransform="matrix(48,79.9995,-79.9995,48,1.02404e-06,-15.9997)"><stop offset="0" style="stop-color:rgb(35,131,174);stop-opacity:1"/><stop offset="1" style="stop-color:rgb(109,215,185);stop-opacity:1"/></linearGradient>
    </defs>
</svg>
