<?xml version="1.0" encoding="UTF-8" standalone="no"?>
<!DOCTYPE svg PUBLIC "-//W3C//DTD SVG 1.1//EN" "http://www.w3.org/Graphics/SVG/1.1/DTD/svg11.dtd">
<svg width="100%" height="100%" viewBox="0 0 98 96" version="1.1" xmlns="http://www.w3.org/2000/svg" xmlns:xlink="http://www.w3.org/1999/xlink" xml:space="preserve" xmlns:serif="http://www.serif.com/" style="fill-rule:evenodd;clip-rule:evenodd;stroke-linejoin:round;stroke-miterlimit:2;">
    <path d="M64.309,95.6C64.912,96.255 56.956,96.585 49,96.586C41.044,96.587 33.088,96.259 33.69,95.599C36.102,96.086 36.985,94.547 36.985,93.252C36.985,92.119 36.906,88.233 36.906,84.184C23.403,87.099 20.591,78.355 20.591,78.355C18.421,72.687 15.206,71.231 15.206,71.231C10.786,68.235 15.528,68.235 15.528,68.235C20.43,68.559 23.002,73.254 23.002,73.254C27.341,80.702 34.333,78.598 37.146,77.302C37.547,74.145 38.834,71.959 40.2,70.745C29.431,69.611 18.1,65.401 18.1,46.618C18.1,41.274 20.028,36.903 23.082,33.503C22.6,32.288 20.912,27.268 23.565,20.548C23.565,20.548 27.663,19.253 36.905,25.568C40.861,24.497 44.941,23.953 49.04,23.948C53.139,23.948 57.317,24.516 61.175,25.568C70.417,19.253 74.515,20.548 74.515,20.548C77.168,27.268 75.479,32.288 74.997,33.503C78.132,36.903 79.98,41.274 79.98,46.618C79.98,65.401 68.649,69.53 57.799,70.745C59.568,72.283 61.094,75.197 61.094,79.812C61.094,86.37 61.015,91.633 61.015,93.251C61.015,94.547 61.899,96.086 64.309,95.6Z" style="fill:white;"/>
</svg>
