<?xml version="1.0" encoding="UTF-8" standalone="no"?>
<!DOCTYPE svg PUBLIC "-//W3C//DTD SVG 1.1//EN" "http://www.w3.org/Graphics/SVG/1.1/DTD/svg11.dtd">
<svg width="100%" height="100%" viewBox="0 0 256 256" version="1.1" xmlns="http://www.w3.org/2000/svg" xmlns:xlink="http://www.w3.org/1999/xlink" xml:space="preserve" xmlns:serif="http://www.serif.com/" style="fill-rule:evenodd;clip-rule:evenodd;stroke-linejoin:round;stroke-miterlimit:2;">
    <g transform="matrix(4.93835,0,0,4.93835,25.7244,25.5013)">
        <path d="M20.955,12.708L18.357,15.344C20.935,15.559 22.615,16.321 23.884,17.59C27.302,21.008 27.283,25.852 23.904,29.231L17.517,35.598C14.119,38.997 9.314,39.016 5.896,35.618C2.478,32.18 2.498,27.376 5.896,23.977L9.724,20.149C9.177,18.919 9.041,17.454 9.255,16.184L3.513,21.907C-1.155,26.594 -1.194,33.235 3.533,37.961C8.279,42.708 14.919,42.669 19.587,38.001L26.267,31.301C30.955,26.614 30.994,19.973 26.248,15.247C25.017,14.016 23.455,13.137 20.955,12.708ZM20.466,28.801L23.064,26.165C20.486,25.969 18.806,25.188 17.537,23.919C14.119,20.501 14.138,15.657 17.517,12.278L23.884,5.911C27.302,2.512 32.107,2.493 35.525,5.911C38.943,9.329 38.904,14.153 35.525,17.532L31.697,21.36C32.244,22.61 32.361,24.055 32.166,25.325L37.908,19.602C42.576,14.915 42.615,8.293 37.888,3.547C33.142,-1.199 26.502,-1.16 21.814,3.528L15.154,10.208C10.466,14.895 10.427,21.536 15.173,26.262C16.404,27.493 17.966,28.372 20.466,28.801Z" style="fill:white;fill-rule:nonzero;"/>
    </g>
</svg>
