<?xml version="1.0" encoding="UTF-8" standalone="no"?>
<!DOCTYPE svg PUBLIC "-//W3C//DTD SVG 1.1//EN" "http://www.w3.org/Graphics/SVG/1.1/DTD/svg11.dtd">
<svg width="100%" height="100%" viewBox="0 0 256 256" version="1.1" xmlns="http://www.w3.org/2000/svg" xmlns:xlink="http://www.w3.org/1999/xlink" xml:space="preserve" xmlns:serif="http://www.serif.com/" style="fill-rule:evenodd;clip-rule:evenodd;stroke-linejoin:round;stroke-miterlimit:2;">
    <circle cx="128" cy="128" r="128" style="fill:rgb(16,115,183);"/>
    <g transform="matrix(0.703125,0,0,0.703125,38,38)">
        <rect x="0" y="0" width="256" height="256" style="fill:rgb(16,115,183);"/>
    </g>
    <g transform="matrix(0.268329,0,0,0.268329,7.60235,7.25086)">
        <path d="M652,595L404,595L404,590.031C404,573.867 403.917,557.703 404.07,541.54C404.101,538.3 402.716,537.033 399.871,537.025C381.742,536.979 363.612,537.002 345.087,537.002L345.087,594.759L287.083,594.759L287.083,537L258.365,537C250.533,537 242.69,537.251 234.874,536.904C230.353,536.703 228.787,537.877 228.883,542.683C229.195,558.341 229,574.009 229,589.673L229,594.776L170,594.776C170,578.378 170.027,562.1 169.99,545.822C169.968,535.839 171.18,537.033 161.273,537.01C145.319,536.973 129.365,537 113.285,537L113.285,479C123.926,479 134.283,479.091 144.637,478.963C150.215,478.895 155.786,478.332 161.365,478.204C169.998,478.006 170,478.083 170,469.682L170,421.306L113.351,421.306L113.351,362.302L169.7,362.302L169.7,305.348L228.703,305.348L228.703,361.654L286.707,361.654L286.707,305.344L344.711,305.344L344.711,361.657L403.714,361.657L403.714,305L408.852,305C505.669,305 602.486,304.813 699.301,305.19C714.832,305.251 729.233,310.991 741.853,320.379C752.711,328.457 760.884,338.563 765.206,351.601C768.527,361.617 768.104,371.455 766.307,381.83C764.29,393.476 760.343,403.984 752.854,412.816C748.29,418.199 742.242,422.326 736.855,427.01C735.994,427.759 735.103,428.474 734.049,429.351C746.94,437.035 759.314,445.138 768.899,456.555C776.543,465.66 781.692,475.996 783.104,488.182C785.223,506.473 784.18,524.359 778,541.761C773.18,555.331 765.034,566.486 753.913,575.825C745.736,582.691 736.983,588.276 727.056,591.876C722.429,593.553 717.368,594.782 712.482,594.863C692.492,595.192 672.495,595 652,595M551.5,484C542.674,484 533.845,483.893 525.025,484.113C523.668,484.147 521.205,485.659 521.186,486.529C520.928,498.279 521.013,510.035 521.013,522C562.851,522 604.128,522.068 645.404,521.927C651.736,521.906 657.471,518.851 660.625,513.596C668.375,500.68 658.443,484.015 643.424,484.005C613.116,483.987 582.808,484 551.5,484M594.5,412C605.487,412 616.476,412.15 627.459,411.958C638.823,411.76 648.267,406.756 647.203,392.478C646.382,381.474 638.984,376.244 631.338,376.164C595.885,375.794 560.426,376.027 524.97,375.953C521.879,375.946 520.912,377.098 520.954,380.075C521.082,389.062 521.194,398.058 520.913,407.038C520.785,411.103 522.198,412.107 526.083,412.079C548.554,411.917 571.027,412 594.5,412M404,436.503L404,421.269L345,421.269C345,426.837 344.927,432.14 345.014,437.441C345.229,450.483 345.662,463.523 345.681,476.565C345.686,480.1 347.905,478.941 349.399,478.949C364.718,479.032 380.038,479.049 395.357,478.956C398.193,478.939 401.026,478.347 404,478.004L404,436.503M287,434.508L287,421C268.624,421 250.817,421.073 233.011,420.939C229.445,420.911 228.941,422.566 228.958,425.54C229.048,441.369 229,457.199 229,473.028L229,478.628L287,478.628L287,434.508M187.502,363L171.287,363L171.287,419.713L227.713,419.713L227.713,363L187.502,363M171,494.505L171,535.712L227.712,535.712L227.712,480.288L171,480.288L171,494.505M335.458,420L343.73,420L343.73,363.001C326.16,363.001 308.86,363.053 291.56,362.957C288.079,362.938 287.959,364.909 287.975,367.49C288.037,377.319 288,387.149 288,396.979L288,420L335.458,420M327.498,536L343.722,536L343.722,480.001C326.146,480.001 308.848,480.052 291.549,479.957C288.06,479.938 287.969,481.928 287.977,484.499C288.023,500.156 288.085,515.815 287.935,531.471C287.901,534.964 289.01,536.122 292.52,536.067C303.844,535.888 315.172,536 327.498,536Z" style="fill:white;fill-rule:nonzero;"/>
    </g>
</svg>
