<?xml version="1.0" encoding="UTF-8" standalone="no"?>
<!DOCTYPE svg PUBLIC "-//W3C//DTD SVG 1.1//EN" "http://www.w3.org/Graphics/SVG/1.1/DTD/svg11.dtd">
<svg width="100%" height="100%" viewBox="0 0 256 256" version="1.1" xmlns="http://www.w3.org/2000/svg" xmlns:xlink="http://www.w3.org/1999/xlink" xml:space="preserve" xmlns:serif="http://www.serif.com/" style="fill-rule:evenodd;clip-rule:evenodd;stroke-linejoin:round;stroke-miterlimit:2;">
    <circle cx="128" cy="128" r="128" style="fill:rgb(78,75,70);"/>
    <g transform="matrix(1.7546,0,0,1.7546,65.7623,38.0008)">
        <path d="M35.468,46.623L35.468,43.727C36.49,43.727 37.492,43.521 38.447,43.116C41.137,41.973 42.902,39.443 43.053,36.516C43.107,35.373 42.904,34.249 42.452,33.183C41.26,30.372 38.52,28.557 35.476,28.557C34.458,28.557 33.46,28.762 32.506,29.167C29.595,30.402 27.739,33.355 27.89,36.512L24.995,36.649C24.788,32.287 27.352,28.208 31.373,26.501C32.688,25.943 34.068,25.66 35.476,25.66C39.685,25.66 43.47,28.169 45.118,32.051C45.732,33.5 46.019,35.092 45.945,36.659C45.736,40.708 43.296,44.2 39.578,45.783C38.264,46.339 36.881,46.623 35.468,46.623" style="fill:rgb(92,186,72);fill-rule:nonzero;"/>
    </g>
    <g transform="matrix(1.7546,0,0,1.7546,65.7623,38.0008)">
        <path d="M46.697,71.821L45.504,69.18L50.255,67.262L49.695,58.166C49.669,57.748 49.826,57.34 50.125,57.045L56.258,51.017C56.557,50.722 56.968,50.57 57.389,50.606L66.475,51.338L68.048,47.639L61.219,41.598C60.904,41.32 60.726,40.918 60.729,40.498L60.822,31.904C60.826,31.484 61.012,31.087 61.333,30.815L68.271,24.922L66.764,21.188L57.679,21.746C57.261,21.776 56.851,21.615 56.557,21.316L50.528,15.185C50.234,14.886 50.084,14.472 50.117,14.053L50.851,4.968L47.142,3.393L41.109,10.215C40.831,10.529 40.464,10.727 40.01,10.704L31.406,10.622C30.987,10.618 30.59,10.432 30.318,10.112L24.414,3.181L20.689,4.68L21.248,13.765C21.278,14.265 20.994,14.68 20.64,15.035C19.567,16.109 15.492,20.076 14.827,20.74C14.473,21.094 14.054,21.374 13.546,21.326L4.47,20.602L2.895,24.301L9.714,30.323C10.029,30.602 10.208,31.003 10.204,31.423L10.122,40.037C10.118,40.457 9.933,40.854 9.612,41.127L2.673,47.03L4.18,50.756L13.276,50.196C13.691,50.161 14.105,50.328 14.399,50.627L20.418,56.769C20.712,57.07 20.861,57.482 20.827,57.902L20.095,66.966L24.765,68.958L23.629,71.622L17.998,69.221C17.424,68.977 17.071,68.393 17.123,67.772L17.889,58.326L12.793,53.129L3.316,53.71C2.697,53.732 2.118,53.386 1.884,52.808L-0.405,47.147C-0.638,46.569 -0.475,45.905 0,45.5L7.232,39.347L7.301,32.056L0.194,25.78C-0.274,25.367 -0.424,24.702 -0.18,24.127L2.212,18.508C2.455,17.934 3.032,17.574 3.66,17.631L12.985,18.375C13.971,17.389 17.027,14.431 18.307,13.151L17.733,3.815C17.694,3.194 18.059,2.616 18.638,2.383L24.297,0.104C24.875,-0.128 25.536,0.035 25.942,0.509L32.093,7.731L39.375,7.801L45.661,0.693C46.073,0.226 46.738,0.074 47.311,0.319L52.943,2.71C53.517,2.954 53.872,3.538 53.82,4.16L53.055,13.627L58.157,18.815L67.626,18.233C68.251,18.188 68.825,18.558 69.058,19.136L71.348,24.807C71.58,25.385 71.416,26.049 70.942,26.453L63.71,32.596L63.634,39.867L70.748,46.162C71.216,46.576 71.365,47.241 71.122,47.813L68.73,53.434C68.486,54.008 67.907,54.355 67.28,54.311L57.815,53.547L52.626,58.648L53.21,68.126C53.249,68.751 52.884,69.327 52.305,69.561L46.697,71.821Z" style="fill:rgb(92,186,72);fill-rule:nonzero;"/>
    </g>
    <g transform="matrix(1.7546,0,0,1.7546,65.7623,38.0008)">
        <path d="M33.593,77.743L46.697,71.82L45.505,69.18L32.444,75.082L32.442,75.08L29.893,76.127L26.886,74.624C26.329,74.346 25.656,74.455 25.215,74.895L23.498,76.611C23.055,77.051 22.946,77.727 23.226,78.284L24.679,81.188C24.334,81.846 24.048,82.538 23.824,83.26L20.744,84.282C20.151,84.478 19.753,85.033 19.753,85.656L19.753,88.079C19.753,88.702 20.151,89.256 20.741,89.452L23.937,90.523L24.731,92.446L23.225,95.463C22.947,96.024 23.058,96.697 23.501,97.139L25.218,98.846C25.658,99.282 26.33,99.391 26.886,99.114L29.892,97.61L31.828,98.412L32.887,101.597C33.083,102.189 33.637,102.587 34.259,102.587L36.682,102.587C37.305,102.587 37.858,102.191 38.056,101.599L39.124,98.412L41.051,97.61L44.068,99.114C44.629,99.393 45.302,99.282 45.742,98.839L47.448,97.122C47.886,96.681 47.995,96.009 47.717,95.453L46.213,92.446L47.008,90.52L50.201,89.454C50.793,89.257 51.19,88.703 51.19,88.08L51.19,85.657C51.19,85.035 50.793,84.481 50.201,84.283L47.008,83.218L46.213,81.291L47.717,78.284L45.127,76.989L43.327,80.585C43.139,80.96 43.124,81.398 43.285,81.785L44.583,84.932C44.743,85.321 45.062,85.62 45.461,85.753L48.294,86.699L48.294,87.036L45.461,87.982C45.063,88.115 44.743,88.414 44.583,88.804L43.285,91.95C43.124,92.337 43.139,92.775 43.327,93.149L44.661,95.815L44.426,96.053L41.754,94.721C41.378,94.534 40.94,94.518 40.553,94.68L37.407,95.988C37.019,96.147 36.72,96.467 36.588,96.865L35.643,99.69L35.308,99.69L34.37,96.868C34.238,96.468 33.938,96.147 33.55,95.987L30.393,94.68C30.006,94.518 29.567,94.535 29.191,94.721L26.526,96.055L26.289,95.819L27.622,93.149C27.808,92.772 27.823,92.336 27.664,91.95L26.366,88.804C26.198,88.396 25.85,88.093 25.44,87.97L22.653,87.036L22.653,86.7L25.473,85.762C25.948,85.604 26.306,85.215 26.424,84.731C26.663,83.744 27.044,82.822 27.558,81.992C27.821,81.563 27.844,81.032 27.62,80.583L26.289,77.921L26.528,77.681L29.191,79.013C29.566,79.2 30.004,79.214 30.39,79.056L33.547,77.757" style="fill:white;fill-rule:nonzero;"/>
    </g>
</svg>
