<?xml version="1.0" encoding="UTF-8" standalone="no"?>
<!DOCTYPE svg PUBLIC "-//W3C//DTD SVG 1.1//EN" "http://www.w3.org/Graphics/SVG/1.1/DTD/svg11.dtd">
<svg width="100%" height="100%" viewBox="0 0 256 256" version="1.1" xmlns="http://www.w3.org/2000/svg" xmlns:xlink="http://www.w3.org/1999/xlink" xml:space="preserve" xmlns:serif="http://www.serif.com/" style="fill-rule:evenodd;clip-rule:evenodd;stroke-linejoin:round;stroke-miterlimit:2;">
    <circle cx="128" cy="128" r="128" style="fill:white;"/>
    <g transform="matrix(0.703125,0,0,0.703125,38,38)">
        <rect x="0" y="0" width="256" height="256" style="fill:white;"/>
    </g>
    <g transform="matrix(0.529166,0,0,0.529166,38,37.5539)">
        <path d="M16.888,275.575L16.888,317.064L0,317.064L0,221.985L16.888,221.985L16.888,260.682L57.446,260.682L57.446,221.985L74.334,221.985L74.334,317.064L57.446,317.064L57.446,275.575L16.888,275.575Z" style="fill:rgb(140,141,145);fill-rule:nonzero;"/>
    </g>
    <g transform="matrix(0.529166,0,0,0.529166,38,37.5539)">
        <path d="M96.143,341.001L107.047,315.203C99.068,294.058 89.361,269.192 80.717,247.251L98.537,247.251C106.25,269.458 110.638,283.42 115.558,297.118C119.814,285.548 126.861,263.74 132.58,247.251L149.999,247.251C137.766,278.101 125.665,309.085 112.633,341.001L96.143,341.001Z" style="fill:rgb(140,141,145);fill-rule:nonzero;"/>
    </g>
    <g transform="matrix(0.529166,0,0,0.529166,38,37.5539)">
        <path d="M164.76,282.224C164.76,295.522 171.94,305.495 184.042,305.495C196.675,305.495 204.254,295.388 204.254,281.692C204.254,268.261 195.877,258.42 184.175,258.42C171.94,258.42 164.76,268.925 164.76,282.224ZM204.388,317.064L204.388,307.224C200.398,313.34 192.286,318.66 180.318,318.66C161.302,318.66 148.138,303.766 148.138,281.958C148.138,260.815 160.771,244.99 180.717,244.99C191.754,244.99 199.733,250.442 203.59,256.16C203.456,251.24 203.456,247.118 203.456,242.331L203.456,221.985L219.68,221.985L219.68,317.064L204.388,317.064Z" style="fill:rgb(140,141,145);fill-rule:nonzero;"/>
    </g>
    <g transform="matrix(0.529166,0,0,0.529166,38,37.5539)">
        <path d="M245.345,247.118L245.345,251.904C245.345,253.501 245.345,255.096 245.212,256.559C247.605,249.511 254.122,245.522 262.1,245.522C263.829,245.522 265.025,245.655 265.956,245.788L265.956,261.213C264.76,260.815 262.898,260.682 261.303,260.682C248.67,260.682 246.409,269.724 246.409,284.085L246.409,317.064L230.185,317.064L230.185,259.751C230.185,255.362 230.185,251.373 230.053,247.118L245.345,247.118Z" style="fill:rgb(140,141,145);fill-rule:nonzero;"/>
    </g>
    <g transform="matrix(0.529166,0,0,0.529166,38,37.5539)">
        <path d="M283.774,282.09C283.774,296.319 291.089,305.628 303.322,305.628C315.689,305.628 323.003,296.319 323.003,282.09C323.003,268.261 315.557,258.42 303.322,258.42C291.222,258.42 283.774,268.261 283.774,282.09ZM340.157,282.224C340.157,303.766 325.929,319.192 303.322,319.192C280.849,319.192 267.152,303.633 267.152,282.224C267.152,260.283 281.647,244.857 303.589,244.857C325.663,244.857 340.157,260.283 340.157,282.224Z" style="fill:rgb(140,141,145);fill-rule:nonzero;"/>
    </g>
    <g transform="matrix(0.529166,0,0,0.529166,38,37.5539)">
        <path d="M183.28,169.029C211.665,154.083 231.073,124.299 231.073,90.053C231.073,55.807 211.665,26.023 183.28,11.077C221.176,17.392 250.162,50.393 250.162,90.053C250.162,129.713 221.176,162.714 183.28,169.029ZM174.643,90.053C174.643,55.819 155.257,26.036 126.889,11.084C164.765,17.415 193.731,50.406 193.731,90.053C193.731,129.7 164.765,162.69 126.889,169.021C155.257,154.07 174.643,124.287 174.643,90.053ZM155.065,169.029C183.449,154.082 202.857,124.299 202.857,90.053C202.857,55.807 183.449,26.023 155.065,11.077C192.961,17.392 221.947,50.393 221.947,90.053C221.947,129.713 192.961,162.714 155.065,169.029ZM170.079,0.843L85.432,0.843C82.912,0.843 80.869,2.886 80.869,5.407C80.869,7.927 82.912,9.97 85.432,9.97C129.591,9.97 165.516,45.895 165.516,90.053C165.516,134.211 129.591,170.136 85.432,170.136C82.912,170.136 80.869,172.179 80.869,174.7C80.869,177.22 82.912,179.262 85.432,179.262L170.079,179.262C219.269,179.262 259.288,139.243 259.288,90.053C259.288,40.863 219.269,0.843 170.079,0.843Z" style="fill:rgb(140,141,145);fill-rule:nonzero;"/>
    </g>
</svg>
