<?xml version="1.0" encoding="UTF-8" standalone="no"?>
<!DOCTYPE svg PUBLIC "-//W3C//DTD SVG 1.1//EN" "http://www.w3.org/Graphics/SVG/1.1/DTD/svg11.dtd">
<svg width="100%" height="100%" viewBox="0 0 1813 2468" version="1.1" xmlns="http://www.w3.org/2000/svg" xmlns:xlink="http://www.w3.org/1999/xlink" xml:space="preserve" xmlns:serif="http://www.serif.com/" style="fill-rule:evenodd;clip-rule:evenodd;stroke-linejoin:round;stroke-miterlimit:2;">
    <g transform="matrix(0.1,0,0,-0.1,0,2468)">
        <path d="M8427,2C11335,1 13716,3 13719,6C13722,9 13724,40 13723,75C13721,116 13725,148 13735,167C13743,182 13750,205 13750,217C13750,233 13754,238 13765,234C13773,230 13780,233 13780,240C13780,246 13785,248 13790,245C13805,236 13800,353 13786,362C13779,367 13781,375 13793,387C13804,399 13810,400 13810,391C13810,382 13814,383 13826,394C13845,414 13894,415 13910,396C13923,379 13950,386 13950,406C13950,421 13986,425 14015,413C14030,408 14029,405 14009,394L13985,382L14011,375C14033,369 14065,363 14080,361C14083,360 14103,337 14124,309C14147,280 14166,263 14170,270C14173,276 14177,306 14178,337C14180,405 14197,460 14216,460C14223,460 14262,475 14302,494C14341,513 14377,527 14382,524C14386,521 14390,522 14390,527C14390,531 14402,536 14418,536C14433,537 14468,548 14495,561C14523,573 14553,584 14562,585C14572,586 14585,592 14592,598C14609,612 14714,651 14740,653C14751,654 14760,658 14760,662C14760,666 14771,670 14785,670C14800,670 14868,693 14937,720C15006,748 15068,770 15075,770C15082,770 15099,779 15114,791C15128,802 15140,808 15140,804C15140,800 15148,804 15158,813C15167,821 15189,832 15205,836C15222,840 15254,853 15278,866C15301,879 15330,890 15341,890C15352,890 15374,897 15391,905C15424,923 15440,918 15440,890C15440,880 15443,865 15446,857C15455,832 15493,876 15486,903C15478,935 15507,960 15550,960C15571,960 15593,967 15600,975C15607,983 15621,990 15632,990C15642,990 15662,997 15675,1006C15690,1016 15700,1018 15700,1011C15700,1005 15708,1000 15718,1001C15728,1001 15730,1004 15723,1007C15716,1009 15710,1016 15710,1021C15710,1027 15718,1026 15730,1020C15741,1014 15748,1005 15745,999C15741,994 15744,990 15751,990C15757,990 15760,998 15757,1010C15754,1020 15755,1029 15759,1028C15762,1027 15775,1031 15787,1038C15799,1045 15820,1051 15834,1052C15848,1053 15862,1060 15864,1067C15867,1074 15877,1080 15885,1080C15894,1080 15898,1075 15895,1070C15886,1056 15896,1058 15912,1073C15940,1099 15980,1120 16005,1120C16019,1120 16030,1124 16030,1129C16030,1134 16041,1138 16053,1138C16066,1138 16092,1144 16111,1152C16141,1165 16289,1217 16315,1223C16321,1224 16330,1228 16335,1231C16341,1235 16358,1240 16373,1244C16395,1249 16400,1248 16395,1238C16391,1231 16395,1233 16403,1243C16412,1254 16425,1258 16436,1254C16451,1250 16452,1250 16441,1258C16430,1266 16435,1271 16465,1279C16486,1285 16508,1286 16513,1283C16519,1280 16520,1282 16516,1288C16512,1295 16515,1301 16524,1301C16541,1303 16558,1306 16563,1309C16564,1310 16581,1313 16599,1316C16618,1318 16637,1325 16640,1330C16649,1344 16920,1431 16962,1433C16985,1434 17000,1439 17000,1447C17000,1454 17019,1464 17043,1470C17066,1476 17094,1484 17105,1488C17116,1492 17141,1495 17162,1495C17182,1495 17196,1498 17193,1503C17186,1515 17251,1538 17311,1545C17361,1551 17437,1571 17485,1591C17496,1596 17530,1607 17560,1616C17590,1625 17622,1638 17630,1645C17638,1652 17664,1667 17687,1680C17710,1692 17731,1712 17734,1722C17738,1741 17738,1741 17717,1723C17705,1713 17693,1702 17690,1699C17683,1690 17643,1670 17633,1670C17629,1670 17641,1680 17660,1691C17679,1703 17728,1746 17767,1787C17822,1843 17850,1883 17885,1953C17954,2094 17970,2181 17990,2510C17995,2601 18002,2684 18004,2695C18007,2706 18016,2747 18025,2785C18034,2824 18046,2879 18051,2908C18056,2936 18065,2986 18070,3018C18084,3094 18079,3317 18062,3405C18040,3521 17999,3702 17985,3750C17978,3775 17964,3822 17955,3855C17924,3963 17869,4134 17845,4195C17832,4228 17810,4289 17796,4330C17782,4371 17762,4432 17750,4465C17730,4521 17708,4623 17659,4885C17648,4946 17629,5038 17619,5090C17608,5142 17597,5194 17596,5205C17592,5225 17561,5356 17535,5460C17527,5490 17514,5542 17506,5575C17480,5682 17473,5703 17417,5870C17323,6153 17254,6316 17103,6615C16931,6957 16758,7256 16626,7440C16545,7554 16408,7735 16354,7801C16280,7891 16279,7892 16197,8100C16107,8327 16043,8480 15970,8645C15936,8722 15901,8803 15893,8825C15884,8847 15872,8868 15866,8872C15860,8876 15858,8880 15863,8880C15867,8880 15864,8890 15855,8903C15847,8916 15843,8930 15847,8933C15850,8937 15848,8940 15841,8940C15834,8940 15832,8945 15835,8950C15838,8955 15836,8960 15829,8960C15822,8960 15819,8963 15823,8966C15826,8970 15822,8979 15814,8987C15806,8996 15801,9009 15804,9017C15807,9025 15805,9028 15800,9025C15791,9020 15788,9026 15791,9046C15791,9050 15788,9056 15783,9059C15778,9062 15752,9106 15725,9155C15660,9276 15601,9374 15533,9471C15468,9565 15419,9679 15389,9805C15364,9914 15331,9981 15287,10014C15253,10040 15151,10087 15045,10125C14987,10145 14984,10149 14953,10211C14935,10246 14916,10292 14910,10313C14900,10348 14901,10353 14934,10393C15020,10498 15041,10604 14996,10712C14966,10785 14875,10906 14802,10969C14771,10997 14729,11033 14710,11049C14691,11066 14651,11097 14622,11117C14581,11147 14571,11159 14575,11176C14583,11210 14562,11300 14535,11355C14508,11408 14481,11441 14340,11586C14292,11636 14244,11693 14235,11711C14206,11766 14145,11851 14092,11909C14051,11953 13957,12093 13941,12135C13939,12140 13913,12170 13884,12200C13855,12230 13821,12269 13809,12285C13797,12302 13742,12360 13688,12416C13634,12472 13590,12521 13590,12527C13590,12560 13397,12707 13304,12745C13268,12759 13240,12781 13216,12811C13145,12898 13061,12973 12985,13015C12907,13058 12798,13090 12732,13089C12688,13088 12654,13096 12594,13120C12465,13173 12393,13199 12240,13251C12160,13278 12055,13318 12005,13339C11956,13361 11887,13390 11854,13403C11743,13449 11461,13531 11372,13544C11293,13555 11115,13627 10904,13733L10793,13789L10787,13917C10783,13987 10780,14080 10780,14122C10780,14164 10773,14228 10765,14265C10749,14331 10712,14420 10699,14420C10691,14420 10580,14584 10580,14597C10580,14602 10569,14617 10555,14630C10541,14643 10530,14657 10530,14661C10530,14669 10468,14760 10443,14790C10436,14798 10418,14821 10403,14840C10388,14859 10346,14911 10309,14955C10273,14999 10227,15060 10207,15090C10188,15120 10131,15192 10081,15250C10031,15308 9953,15405 9907,15465C9813,15588 9756,15654 9691,15714C9667,15737 9629,15773 9606,15795C9583,15817 9539,15859 9508,15887C9445,15947 9437,15971 9459,16028C9478,16075 9543,16150 9565,16150C9574,16150 9586,16161 9592,16175C9598,16189 9606,16200 9610,16200C9613,16200 9635,16218 9658,16240C9686,16266 9706,16277 9717,16273C9728,16269 9731,16270 9726,16279C9717,16293 9756,16340 9777,16340C9784,16340 9793,16352 9796,16366C9801,16384 9806,16388 9813,16381C9828,16366 9840,16367 9840,16385C9840,16409 9875,16467 9886,16463C9892,16461 9903,16472 9909,16487C9923,16519 9958,16560 9986,16576C9996,16582 10007,16595 10008,16604C10010,16614 10020,16630 10031,16641C10041,16651 10050,16668 10050,16678C10050,16688 10061,16707 10075,16720C10098,16742 10100,16742 10101,16724C10102,16696 10128,16769 10129,16803C10130,16818 10137,16833 10145,16836C10153,16840 10160,16851 10160,16862C10160,16874 10169,16884 10181,16887C10193,16891 10203,16904 10207,16922C10210,16937 10217,16953 10221,16956C10226,16959 10230,16969 10230,16978C10230,16987 10237,17008 10245,17024C10253,17039 10260,17062 10260,17075C10260,17098 10282,17125 10292,17114C10295,17111 10303,17132 10310,17159C10317,17187 10326,17213 10331,17216C10336,17219 10338,17226 10334,17231C10331,17236 10334,17239 10342,17238C10350,17236 10355,17245 10355,17260C10355,17276 10362,17286 10373,17288C10382,17290 10387,17296 10384,17301C10372,17321 10390,17379 10411,17385C10425,17390 10429,17397 10425,17410C10422,17420 10424,17431 10430,17435C10436,17439 10439,17447 10437,17454C10430,17472 10448,17570 10461,17586C10467,17594 10474,17620 10476,17645C10478,17669 10486,17700 10494,17712C10509,17735 10535,17841 10544,17915C10550,17966 10560,18000 10576,18025C10584,18036 10592,18077 10596,18115C10603,18197 10617,18257 10630,18265C10636,18269 10640,18335 10641,18418C10641,18499 10646,18590 10651,18620C10655,18650 10666,18716 10675,18765C10692,18867 10703,19278 10688,19297C10678,19310 10672,19589 10682,19593C10686,19594 10692,19622 10695,19655C10702,19727 10718,19780 10732,19780C10738,19780 10740,19790 10736,19805C10732,19819 10733,19830 10738,19830C10743,19830 10755,19846 10766,19865C10776,19885 10790,19898 10797,19896C10803,19893 10811,19898 10814,19906C10817,19914 10814,19920 10807,19920C10799,19920 10800,19924 10810,19929C10818,19935 10827,19937 10832,19934C10840,19929 10872,19985 10864,19992C10862,19995 10871,19995 10886,19992C10905,19989 10911,19991 10906,19999C10901,20007 10916,20010 10958,20010C10999,20010 11021,20015 11030,20025C11039,20035 11039,20040 11031,20040C11025,20040 11020,20046 11020,20054C11020,20062 11015,20070 11008,20072C10987,20079 10996,20137 11023,20173C11037,20192 11073,20219 11103,20233C11156,20258 11240,20333 11240,20355C11240,20372 11281,20444 11296,20453C11304,20457 11310,20466 11310,20473C11310,20480 11319,20502 11330,20523C11341,20543 11350,20563 11349,20566C11349,20569 11352,20575 11356,20578C11360,20582 11360,20579 11355,20571C11351,20563 11368,20577 11393,20601C11419,20625 11440,20649 11440,20655C11440,20660 11452,20677 11468,20691C11493,20715 11508,20739 11529,20793C11557,20863 11562,20883 11556,20910C11550,20942 11565,20953 11573,20923C11576,20910 11578,20913 11579,20930C11580,20944 11583,20970 11584,20987C11586,21005 11584,21017 11580,21015C11566,21006 11557,21030 11551,21096C11544,21162 11556,21185 11567,21128L11573,21097L11597,21126C11609,21142 11620,21161 11620,21167C11620,21174 11636,21201 11655,21226C11680,21258 11689,21278 11684,21292C11680,21306 11682,21310 11689,21306C11695,21302 11703,21305 11706,21313C11709,21322 11720,21325 11738,21322C11764,21317 11764,21318 11748,21337C11734,21352 11733,21359 11742,21368C11749,21375 11758,21380 11763,21380C11769,21380 11778,21387 11785,21397C11795,21410 11794,21419 11784,21439C11776,21453 11770,21470 11770,21475C11770,21481 11761,21496 11751,21510C11734,21531 11729,21533 11705,21522C11691,21515 11681,21506 11684,21501C11690,21492 11661,21476 11653,21484C11650,21487 11655,21499 11664,21512C11683,21539 11685,21554 11668,21544C11660,21540 11658,21541 11663,21546C11668,21551 11676,21556 11681,21556C11686,21557 11694,21558 11699,21559C11704,21559 11706,21569 11703,21581C11698,21597 11691,21601 11671,21597L11645,21592L11670,21613C11690,21631 11695,21644 11695,21681C11695,21714 11691,21726 11682,21723C11673,21719 11672,21724 11680,21744C11687,21764 11686,21770 11675,21770C11668,21770 11658,21775 11655,21780C11651,21786 11652,21790 11657,21789C11661,21788 11673,21788 11684,21789C11700,21790 11701,21792 11689,21806C11677,21821 11678,21822 11698,21816C11715,21810 11720,21813 11720,21825C11720,21839 11713,21841 11683,21836C11653,21832 11650,21832 11668,21840C11680,21845 11705,21849 11723,21848C11776,21846 11802,21872 11761,21885C11740,21891 11739,21921 11759,21973C11773,22009 11773,22020 11759,22020C11754,22020 11752,22016 11755,22010C11763,21996 11742,21960 11725,21960C11717,21960 11707,21953 11703,21945C11696,21934 11687,21933 11665,21939C11648,21944 11640,21949 11645,21949C11664,21951 11625,21970 11602,21970C11589,21970 11582,21974 11585,21980C11589,21986 11595,21988 11600,21985C11604,21982 11613,21987 11620,21995C11627,22003 11635,22008 11639,22006C11642,22004 11646,22013 11646,22026C11648,22046 11643,22050 11622,22050C11606,22050 11600,22054 11605,22059C11621,22074 11655,22076 11652,22062C11651,22055 11656,22047 11664,22044C11672,22041 11676,22031 11674,22022C11670,22009 11672,22010 11685,22025C11694,22036 11706,22044 11711,22043C11716,22041 11719,22043 11718,22048C11717,22056 11727,22087 11740,22111C11747,22125 11745,22126 11724,22116C11711,22110 11700,22103 11700,22100C11700,22097 11681,22095 11658,22097C11633,22098 11612,22094 11606,22086C11589,22066 11560,22058 11560,22074C11560,22082 11564,22090 11569,22092C11573,22094 11581,22105 11584,22118C11590,22135 11587,22140 11574,22140C11563,22140 11560,22144 11567,22153C11572,22159 11582,22178 11589,22194C11600,22220 11599,22222 11586,22210C11562,22191 11566,22216 11590,22240C11601,22251 11612,22278 11615,22302C11617,22326 11617,22336 11614,22325C11605,22296 11586,22279 11593,22307C11596,22320 11595,22332 11590,22335C11581,22341 11589,22388 11601,22396C11606,22399 11610,22390 11610,22376C11610,22362 11615,22350 11620,22350C11634,22350 11633,22393 11618,22408C11611,22415 11610,22420 11615,22420C11619,22420 11615,22429 11605,22440C11585,22462 11579,22479 11578,22523C11577,22540 11571,22551 11561,22552C11522,22556 11514,22558 11498,22565C11485,22570 11482,22579 11487,22598C11491,22614 11489,22621 11482,22616C11463,22604 11443,22620 11447,22644C11450,22657 11447,22671 11441,22674C11434,22679 11430,22669 11429,22648C11429,22630 11426,22621 11423,22627C11420,22637 11411,22636 11387,22623C11369,22613 11352,22607 11348,22608C11343,22609 11340,22599 11340,22586C11340,22543 11330,22530 11304,22536C11277,22543 11273,22531 11291,22498C11298,22485 11298,22480 11292,22484C11286,22487 11279,22486 11275,22480C11271,22474 11264,22473 11258,22476C11251,22481 11249,22477 11253,22467C11257,22455 11254,22452 11237,22455C11226,22458 11209,22454 11201,22446C11175,22425 11150,22419 11150,22434C11150,22442 11145,22450 11138,22452C11131,22455 11121,22476 11115,22500C11106,22538 11099,22546 11072,22554C11054,22559 11040,22568 11040,22575C11040,22581 11021,22590 10998,22596C10974,22601 10954,22611 10954,22618C10953,22624 10952,22634 10951,22639C10951,22644 10941,22650 10929,22653C10917,22656 10911,22663 10915,22669C10918,22675 10918,22680 10913,22681C10881,22684 10864,22691 10853,22706C10846,22716 10840,22720 10840,22716C10840,22712 10827,22718 10811,22729C10795,22741 10777,22750 10772,22750C10766,22750 10760,22753 10758,22758C10751,22774 10689,22810 10668,22810C10634,22810 10607,22833 10591,22874C10583,22893 10573,22907 10568,22904C10564,22901 10560,22904 10560,22909C10560,22915 10564,22920 10570,22920C10583,22920 10580,23005 10565,23065C10547,23135 10520,23200 10508,23200C10503,23200 10493,23215 10485,23234C10470,23269 10392,23353 10307,23423C10282,23444 10259,23473 10255,23488C10245,23531 10226,23570 10215,23570C10210,23570 10211,23574 10219,23579C10229,23585 10223,23594 10196,23615C10176,23630 10160,23648 10160,23656C10160,23678 10114,23721 10097,23714C10080,23708 10055,23744 10065,23760C10069,23766 10065,23777 10056,23785C10045,23796 10040,23797 10037,23787C10030,23768 10007,23794 10004,23826C10000,23861 9994,23865 9975,23846C9955,23826 9955,23826 9939,23847C9929,23858 9929,23861 9938,23856C9955,23846 9953,23856 9933,23888C9913,23920 9870,23959 9853,23960C9847,23960 9832,23973 9820,23989C9809,24006 9791,24022 9780,24025C9769,24029 9762,24035 9765,24040C9770,24048 9743,24070 9696,24096C9685,24102 9674,24112 9672,24119C9669,24129 9672,24129 9688,24121C9713,24107 9720,24107 9720,24120C9720,24125 9683,24148 9638,24169C9547,24213 9494,24220 9225,24224C9159,24225 9100,24229 9093,24233C9087,24237 9084,24249 9087,24260C9091,24274 9087,24280 9076,24280C9067,24280 9060,24288 9060,24300C9060,24311 9065,24320 9070,24320C9076,24320 9080,24316 9080,24310C9080,24305 9087,24303 9095,24306C9103,24310 9110,24318 9110,24325C9110,24332 9116,24341 9123,24343C9129,24346 9120,24349 9103,24349C9068,24350 9062,24358 9083,24379C9093,24389 9092,24394 9078,24404C9068,24411 9060,24421 9060,24426C9060,24431 9030,24435 8992,24436C8921,24436 8876,24455 8865,24490C8858,24512 8804,24571 8769,24593C8754,24603 8735,24608 8725,24604C8713,24599 8702,24604 8689,24621C8678,24634 8672,24638 8676,24628C8682,24611 8664,24610 8584,24626C8565,24629 8550,24627 8546,24621C8541,24614 8550,24610 8570,24610C8588,24610 8599,24606 8595,24600C8592,24595 8596,24590 8604,24590C8628,24590 8623,24575 8595,24562C8575,24553 8561,24554 8530,24566C8508,24575 8492,24586 8495,24590C8498,24595 8496,24601 8491,24604C8486,24607 8479,24602 8476,24593C8471,24580 8467,24579 8457,24589C8448,24598 8448,24603 8460,24611C8473,24619 8473,24622 8458,24633C8443,24645 8443,24647 8458,24658C8472,24668 8466,24669 8427,24666C8399,24663 8382,24665 8385,24671C8389,24676 8344,24680 8276,24680C8200,24680 8160,24676 8160,24669C8160,24663 8152,24660 8143,24662C8125,24666 8090,24622 8090,24596C8090,24589 8082,24576 8073,24569C8058,24557 8057,24557 8064,24575C8076,24607 8076,24614 8063,24615C8038,24616 8029,24636 8047,24651C8063,24664 8064,24663 8052,24648C8045,24639 8043,24630 8047,24627C8051,24624 8063,24633 8072,24645C8089,24668 8089,24669 8071,24675C8042,24684 8010,24660 8010,24628C8010,24598 7994,24584 7968,24588C7955,24590 7950,24585 7950,24568C7950,24555 7945,24538 7939,24530C7931,24518 7929,24518 7931,24535C7934,24577 7930,24610 7921,24610C7915,24610 7913,24601 7915,24591C7918,24577 7914,24573 7904,24577C7896,24580 7889,24590 7888,24599C7882,24663 7872,24679 7837,24678C7819,24678 7800,24673 7793,24668C7786,24663 7779,24663 7775,24670C7765,24686 7753,24682 7745,24658C7738,24635 7738,24635 7732,24656C7726,24673 7716,24677 7669,24679L7612,24681L7589,24631C7565,24580 7550,24567 7550,24596C7550,24607 7544,24610 7530,24605C7516,24600 7510,24603 7510,24614C7510,24624 7519,24630 7532,24630C7549,24630 7551,24633 7542,24642C7533,24651 7527,24651 7518,24642C7511,24635 7496,24630 7484,24630C7469,24630 7460,24622 7456,24605C7452,24591 7443,24580 7435,24580C7427,24580 7416,24572 7411,24561C7405,24550 7375,24535 7340,24524C7307,24514 7280,24503 7280,24500C7280,24486 7294,24481 7306,24491C7313,24497 7321,24497 7324,24492C7331,24479 7303,24456 7260,24440C7201,24418 7126,24373 7096,24341C7066,24310 7037,24301 7025,24320C7022,24326 7013,24330 7007,24330C7000,24329 7005,24321 7018,24311L7040,24292L7014,24261C7000,24244 6983,24231 6976,24232C6970,24234 6955,24225 6942,24212C6930,24200 6923,24190 6926,24190C6930,24190 6928,24184 6922,24178C6917,24171 6893,24128 6871,24083C6846,24034 6823,24000 6814,24000C6804,24000 6801,23994 6804,23982C6812,23957 6781,23931 6747,23934C6732,23936 6715,23931 6709,23924C6694,23905 6660,23906 6660,23925C6660,23933 6656,23940 6650,23940C6645,23940 6643,23933 6647,23924C6652,23911 6648,23909 6629,23915C6611,23920 6609,23919 6620,23911C6632,23903 6630,23899 6610,23891C6577,23877 6550,23855 6550,23842C6550,23836 6540,23825 6528,23819C6515,23812 6483,23787 6455,23763C6411,23723 6405,23720 6398,23737C6391,23752 6390,23751 6394,23733C6399,23703 6376,23683 6355,23700C6343,23710 6339,23708 6330,23686C6315,23647 6309,23655 6314,23707C6317,23734 6326,23760 6335,23766C6349,23776 6349,23778 6335,23784C6326,23787 6320,23784 6320,23775C6320,23767 6316,23760 6311,23760C6306,23760 6297,23745 6291,23728C6284,23710 6273,23683 6265,23668C6257,23651 6255,23638 6261,23635C6266,23631 6273,23636 6276,23644C6285,23667 6295,23664 6308,23635C6324,23601 6323,23595 6305,23610C6297,23617 6293,23627 6296,23634C6299,23640 6294,23636 6285,23625C6269,23605 6268,23605 6244,23635C6231,23652 6220,23671 6220,23678C6220,23684 6214,23690 6206,23690C6198,23690 6190,23695 6188,23702C6185,23709 6183,23688 6182,23655C6181,23623 6177,23594 6172,23591C6167,23588 6157,23568 6150,23546C6143,23523 6135,23512 6131,23519C6122,23533 5908,23635 5831,23661C5801,23672 5767,23680 5756,23680C5744,23680 5726,23686 5715,23694C5695,23707 5658,23714 5545,23726C5461,23734 5295,23679 5239,23625C5197,23585 5142,23501 5176,23531C5211,23560 5219,23562 5215,23538C5212,23526 5204,23512 5196,23508C5181,23499 5164,23457 5155,23400C5152,23381 5143,23352 5136,23335C5111,23276 5104,23244 5101,23170C5099,23129 5093,23089 5087,23082C5080,23072 5079,23066 5087,23062C5093,23058 5101,23031 5105,23003C5112,22952 5113,22950 5138,22956C5153,22960 5170,22967 5176,22972C5184,22978 5188,22973 5188,22958C5189,22945 5191,22927 5193,22916C5197,22898 5161,22851 5088,22779C5067,22758 5050,22736 5050,22730C5050,22724 5044,22722 5038,22726C5031,22730 5028,22730 5032,22725C5042,22715 5013,22648 4992,22632C4977,22620 4948,22515 4958,22505C4960,22503 4973,22508 4986,22517C5000,22526 5013,22530 5017,22526C5027,22517 4990,22481 4976,22486C4969,22489 4959,22480 4952,22466C4941,22442 4942,22442 4968,22456C5008,22477 5013,22474 5007,22436C5002,22402 5002,22401 5026,22412C5039,22418 5050,22427 5050,22431C5050,22436 5061,22435 5075,22428C5088,22422 5097,22413 5093,22407C5090,22402 5085,22402 5080,22409C5075,22418 5070,22417 5061,22407C5055,22399 5050,22388 5052,22384C5053,22379 5048,22364 5041,22352C5034,22339 5031,22326 5034,22323C5037,22320 5028,22304 5014,22287C4996,22265 4990,22250 4995,22232C4999,22215 4995,22201 4980,22185C4958,22162 4962,22130 4987,22130C4995,22130 4999,22134 4996,22139C4993,22143 5001,22157 5014,22169C5033,22187 5038,22188 5043,22176C5046,22168 5042,22156 5034,22150C5026,22143 5020,22132 5020,22125C5020,22118 5002,22093 4979,22070C4957,22047 4941,22026 4943,22023C4946,22021 4963,22033 4981,22052C4999,22070 5010,22077 5007,22068C5003,22058 5005,22050 5011,22050C5017,22050 5018,22044 5014,22038C5008,22028 5009,22028 5021,22037C5029,22044 5041,22045 5049,22041C5059,22035 5058,22031 5046,22027C5037,22023 5030,22016 5030,22010C5030,21996 5072,22008 5082,22024C5087,22032 5092,22032 5100,22024C5107,22017 5108,22010 5103,22007C5098,22004 5096,21983 5098,21960C5102,21920 5103,21920 5121,21936C5146,21959 5144,21944 5116,21895C5103,21873 5087,21856 5080,21858C5074,21859 5072,21856 5075,21850C5079,21844 5085,21841 5088,21844C5099,21856 5121,21810 5125,21765C5128,21739 5133,21714 5136,21709C5139,21704 5130,21678 5115,21652L5089,21605L5117,21630C5132,21644 5149,21660 5153,21665C5158,21671 5159,21666 5155,21654C5152,21640 5156,21628 5167,21619C5182,21607 5183,21607 5176,21625C5172,21636 5172,21641 5176,21637C5181,21633 5185,21606 5186,21577C5191,21476 5190,21479 5211,21491C5237,21504 5255,21493 5239,21474C5231,21464 5230,21456 5237,21449C5244,21442 5251,21448 5258,21469C5266,21491 5273,21498 5284,21494C5305,21486 5304,21474 5281,21436C5256,21396 5243,21330 5260,21330C5268,21330 5269,21324 5265,21313C5241,21259 5246,20850 5271,20700C5277,20664 5283,20592 5284,20540C5284,20488 5288,20440 5292,20435C5304,20416 5323,20266 5321,20200C5320,20164 5312,20097 5303,20050C5282,19938 5276,19860 5288,19860C5293,19860 5300,19869 5303,19880C5310,19908 5330,19905 5330,19875C5330,19828 5353,19794 5383,19799C5387,19799 5390,19792 5390,19782C5390,19769 5375,19759 5336,19747C5229,19713 5148,19611 5120,19476C5106,19408 5113,19259 5135,19165C5143,19132 5159,19065 5171,19015C5185,18956 5195,18868 5200,18760C5209,18592 5210,18582 5237,18495C5258,18429 5380,18184 5432,18105C5514,17979 5679,17898 5815,17915C5867,17921 5868,17921 5874,17893C5889,17820 5920,17625 5930,17530C5936,17472 5952,17346 5966,17250C5980,17154 5993,17062 5995,17045C6002,16995 6029,16751 6039,16655C6048,16556 6044,16545 6000,16535C5984,16532 5953,16516 5932,16500C5888,16469 5862,16412 5834,16292C5811,16192 5718,15948 5556,15560C5536,15511 5515,15438 5508,15390C5497,15318 5492,15305 5475,15302C5464,15301 5404,15288 5342,15274C5213,15245 5183,15225 5143,15146C5129,15118 5106,15082 5091,15067C5055,15027 4979,14990 4913,14980C4800,14961 4755,14942 4694,14888C4661,14859 4617,14827 4595,14818C4573,14809 4506,14781 4445,14757C4385,14732 4268,14682 4185,14646C4103,14609 4004,14565 3965,14548C3927,14531 3810,14476 3705,14425C3601,14374 3488,14322 3455,14310C3422,14297 3392,14282 3388,14276C3384,14270 3360,14277 3324,14294C3265,14323 3132,14380 3115,14383C3110,14385 3100,14389 3094,14393C3087,14397 3054,14404 3018,14409C2935,14421 2833,14403 2717,14356C2669,14336 2624,14320 2619,14320C2613,14320 2631,14338 2659,14360C2709,14399 2722,14420 2698,14420C2668,14420 2706,14435 2753,14441C2782,14445 2814,14451 2825,14453C2836,14456 2852,14459 2860,14459C2869,14460 2876,14469 2876,14481C2876,14500 2872,14501 2830,14495C2805,14492 2718,14471 2635,14450C2553,14429 2458,14406 2425,14400C2329,14381 2274,14361 2129,14294C2054,14259 1987,14230 1981,14230C1936,14230 1663,14074 1615,14021C1605,14009 1568,13986 1534,13970C1441,13927 1407,13899 1176,13673C1025,13525 940,13432 879,13350C438,12756 240,12260 183,11605C174,11505 174,11074 183,10948L190,10841L141,10693C21,10334 -9,10121 43,10012C57,9983 88,9932 113,9898C207,9765 263,9614 299,9395C324,9246 328,9213 330,9161C330,9131 333,9104 335,9101C337,9098 341,9061 344,9020C348,8979 355,8909 360,8865C365,8821 372,8736 376,8675C379,8615 383,8552 385,8535C387,8519 380,8483 370,8455C338,8369 301,8237 291,8175C286,8142 270,8048 256,7967C242,7885 223,7762 215,7692C199,7560 186,7487 167,7410C161,7385 156,7362 158,7358C159,7354 148,7343 134,7334C117,7322 113,7315 120,7310C129,7304 129,7297 119,7279C109,7262 105,7217 105,7130C105,7014 108,6998 139,6905C196,6737 260,6586 348,6415C393,6328 399,6316 425,6258C439,6227 455,6177 462,6148C469,6119 477,6093 480,6090C483,6087 492,6054 499,6017C506,5979 523,5917 536,5878C549,5840 560,5800 560,5790C560,5779 564,5769 569,5766C574,5762 581,5741 585,5717C592,5678 610,5621 631,5575C636,5564 653,5519 669,5475C740,5281 840,5041 930,4850C962,4781 1000,4698 1015,4665C1049,4587 1131,4420 1169,4350C1185,4320 1206,4279 1214,4260C1229,4226 1358,3976 1452,3798C1478,3749 1508,3697 1519,3681C1531,3665 1540,3649 1540,3646C1540,3642 1578,3573 1625,3491C1672,3410 1710,3338 1710,3331C1710,3325 1714,3320 1719,3320C1723,3320 1749,3284 1776,3239C1803,3194 1833,3146 1842,3131C1851,3117 1885,3058 1916,3000C1947,2942 1981,2884 1991,2870C2002,2856 2020,2825 2032,2802C2043,2778 2059,2756 2066,2753C2074,2750 2078,2744 2075,2740C2073,2736 2085,2713 2102,2689C2133,2646 2149,2620 2260,2420C2289,2368 2324,2307 2337,2285C2358,2249 2396,2180 2457,2069C2469,2047 2483,2023 2489,2016C2494,2010 2515,1973 2534,1935C2553,1896 2578,1855 2589,1843C2601,1831 2610,1816 2610,1810C2610,1804 2627,1776 2649,1747C2670,1718 2700,1673 2716,1645C2731,1618 2750,1591 2756,1585C2772,1571 2835,1479 2843,1458C2846,1448 2853,1440 2858,1440C2863,1440 2875,1424 2886,1405C2896,1386 2908,1370 2911,1370C2915,1370 2934,1346 2953,1317C2973,1287 2996,1257 3005,1250C3014,1242 3032,1216 3044,1191C3064,1152 3068,1124 3073,1004C3077,889 3082,856 3098,823C3126,769 3212,685 3278,648C3339,613 3338,618 3300,490C3290,454 3270,373 3256,310C3239,232 3216,163 3186,100L3141,5L8427,2Z" style="fill:none;fill-rule:nonzero;stroke:black;stroke-width:170px;"/>
    </g>
</svg>
