<?xml version="1.0" encoding="UTF-8" standalone="no"?>
<!DOCTYPE svg PUBLIC "-//W3C//DTD SVG 1.1//EN" "http://www.w3.org/Graphics/SVG/1.1/DTD/svg11.dtd">
<svg width="100%" height="100%" viewBox="0 0 1813 2468" version="1.1" xmlns="http://www.w3.org/2000/svg" xmlns:xlink="http://www.w3.org/1999/xlink" xml:space="preserve" xmlns:serif="http://www.serif.com/" style="fill-rule:evenodd;clip-rule:evenodd;stroke-linejoin:round;stroke-miterlimit:2;">
    <g transform="matrix(0.1,0,0,-0.1,0,2468)">
        <path d="M7605,24655C7591,24634 7555,24556 7547,24530C7543,24518 7541,24519 7535,24534C7529,24546 7532,24555 7543,24561C7562,24572 7554,24611 7534,24603C7526,24600 7520,24590 7520,24581C7520,24568 7518,24568 7511,24579C7506,24587 7495,24590 7486,24587C7476,24583 7470,24586 7470,24596C7470,24604 7477,24610 7486,24608C7496,24606 7505,24610 7506,24615C7508,24621 7499,24625 7485,24625C7471,24625 7460,24620 7460,24613C7460,24589 7394,24539 7340,24524C7276,24505 7276,24505 7285,24490C7290,24482 7296,24482 7306,24491C7326,24507 7336,24494 7319,24474C7308,24460 7276,24444 7200,24413C7170,24400 7047,24303 7041,24287C7039,24281 7024,24266 7009,24253C6994,24240 6978,24220 6975,24210C6971,24199 6964,24190 6958,24190C6953,24190 6958,24206 6969,24226C6997,24274 6990,24280 6959,24235C6946,24216 6928,24200 6920,24199C6910,24199 6912,24196 6925,24191C6942,24184 6942,24182 6928,24174C6920,24169 6894,24128 6871,24082C6833,24007 6828,24001 6810,24010C6787,24022 6783,24008 6804,23991C6822,23976 6813,23940 6791,23938C6762,23936 6715,23942 6705,23949C6683,23965 6642,23960 6637,23940C6634,23927 6626,23923 6611,23927C6595,23931 6590,23928 6590,23912C6590,23886 6572,23874 6564,23894C6561,23903 6565,23921 6574,23935C6592,23963 6594,23970 6581,23970C6577,23970 6559,23947 6541,23919C6524,23891 6515,23870 6523,23873C6532,23876 6536,23869 6535,23851C6535,23834 6529,23825 6519,23826C6511,23827 6493,23812 6480,23794C6456,23763 6413,23734 6403,23744C6401,23746 6404,23757 6412,23769C6422,23786 6422,23792 6411,23802C6403,23809 6400,23810 6403,23804C6406,23798 6403,23781 6395,23766C6387,23751 6381,23736 6381,23732C6385,23703 6379,23698 6360,23715C6346,23728 6340,23729 6340,23720C6340,23713 6337,23710 6333,23714C6328,23718 6332,23727 6340,23733C6354,23745 6357,23750 6367,23795C6371,23814 6371,23814 6357,23798C6338,23774 6331,23785 6340,23825C6344,23844 6345,23874 6341,23892C6333,23930 6330,23924 6309,23827C6300,23785 6293,23771 6281,23772C6272,23774 6265,23771 6265,23765C6265,23760 6261,23749 6256,23742C6252,23735 6251,23726 6254,23723C6257,23719 6260,23721 6260,23727C6260,23733 6266,23740 6273,23743C6284,23747 6285,23740 6280,23708C6269,23648 6230,23627 6230,23681C6230,23701 6226,23710 6218,23707C6211,23705 6178,23730 6145,23764C6112,23798 6092,23816 6101,23805C6137,23760 6169,23693 6172,23655C6175,23610 6155,23544 6136,23537C6129,23534 6082,23552 6030,23577C5890,23643 5851,23658 5782,23674C5747,23682 5713,23693 5707,23698C5689,23712 5616,23722 5520,23723C5453,23724 5426,23720 5390,23703C5365,23691 5331,23678 5315,23674C5266,23662 5180,23592 5180,23565C5180,23561 5170,23544 5158,23527L5136,23495L5173,23523C5199,23543 5210,23547 5210,23537C5210,23529 5204,23520 5197,23517C5190,23514 5178,23494 5171,23471C5165,23448 5155,23430 5150,23430C5145,23430 5143,23417 5146,23401C5150,23384 5146,23358 5137,23339C5115,23291 5098,23198 5101,23145C5103,23120 5099,23095 5092,23088C5074,23070 5077,23060 5101,23060C5118,23060 5120,23057 5111,23046C5104,23037 5102,23017 5106,22992L5112,22951L5138,22968C5155,22979 5161,22980 5156,22972C5149,22961 5152,22961 5168,22971C5180,22978 5195,22980 5206,22975C5217,22971 5231,22966 5237,22966C5244,22965 5250,22962 5250,22958C5250,22920 5249,22919 5228,22925C5211,22931 5208,22929 5213,22916C5218,22904 5212,22897 5195,22890C5181,22885 5170,22876 5170,22870C5170,22864 5145,22834 5115,22804C5085,22773 5060,22744 5060,22740C5060,22735 5054,22725 5047,22718C5040,22711 5026,22686 5016,22663C5006,22640 4993,22622 4988,22623C4982,22624 4977,22612 4975,22595C4973,22579 4969,22550 4966,22533C4962,22506 4963,22502 4974,22513C4982,22519 4986,22528 4983,22532C4981,22536 4986,22537 4994,22534C5002,22531 5010,22536 5013,22547C5016,22560 5018,22558 5019,22539C5020,22512 5004,22485 4980,22477C4970,22473 4972,22471 4987,22471C5013,22470 5020,22453 5009,22422L5000,22399L5029,22419C5045,22431 5065,22437 5073,22434C5090,22428 5107,22449 5093,22459C5078,22469 5093,22505 5113,22506C5132,22508 5136,22495 5120,22485C5115,22482 5110,22472 5110,22463C5110,22450 5113,22450 5125,22460C5134,22467 5143,22470 5147,22467C5150,22463 5141,22455 5126,22449C5112,22442 5100,22432 5100,22426C5100,22421 5086,22401 5068,22383C5051,22365 5036,22342 5035,22332C5035,22322 5024,22300 5011,22285C4996,22265 4991,22248 4995,22232C4999,22215 4995,22201 4980,22185C4958,22162 4962,22130 4987,22130C4995,22130 4999,22134 4996,22139C4993,22143 5002,22158 5015,22170C5036,22190 5040,22191 5040,22177C5040,22152 5020,22120 4971,22068C4921,22014 4920,21993 4970,22040C5005,22073 5011,22076 5007,22058C5006,22051 5015,22044 5028,22042C5040,22040 5050,22034 5050,22028C5050,22022 5047,22020 5044,22023C5038,22029 5000,21988 5000,21976C5000,21973 5007,21970 5015,21970C5023,21970 5030,21976 5030,21984C5030,21992 5045,22004 5063,22011C5080,22018 5099,22026 5104,22028C5108,22031 5108,22025 5104,22017C5093,21997 5099,21910 5111,21910C5116,21910 5120,21917 5120,21925C5120,21933 5125,21940 5130,21940C5137,21940 5137,21934 5130,21920C5124,21909 5115,21900 5110,21900C5105,21900 5103,21893 5107,21884C5111,21874 5105,21867 5091,21863C5079,21860 5071,21853 5072,21848C5074,21843 5079,21840 5083,21842C5096,21848 5120,21788 5120,21748C5120,21717 5117,21709 5106,21713C5094,21718 5095,21713 5108,21691C5123,21664 5122,21662 5096,21627C5080,21606 5072,21590 5077,21590C5082,21590 5092,21599 5100,21610C5127,21648 5170,21628 5170,21579C5170,21564 5166,21549 5161,21546C5156,21543 5150,21532 5147,21521C5144,21507 5146,21503 5156,21507C5164,21510 5167,21517 5163,21523C5159,21530 5163,21531 5174,21527C5184,21523 5193,21520 5195,21520C5197,21520 5192,21506 5183,21489C5168,21459 5173,21433 5189,21459C5196,21470 5202,21469 5221,21451C5251,21423 5257,21424 5265,21460C5269,21477 5278,21490 5286,21490C5294,21490 5300,21488 5300,21485C5300,21472 5269,21421 5260,21418C5248,21414 5241,21383 5237,21315C5235,21293 5230,21267 5226,21257C5219,21243 5221,21241 5235,21247C5251,21253 5252,21249 5247,21214C5240,21172 5238,20842 5244,20799C5246,20785 5253,20747 5260,20714C5267,20682 5274,20610 5276,20555C5280,20445 5288,20380 5300,20365C5304,20360 5311,20321 5314,20280C5320,20211 5315,20147 5290,20015C5269,19907 5268,19873 5280,19849L5293,19826L5303,19850L5312,19875L5322,19845C5328,19829 5339,19807 5348,19798C5368,19775 5358,19754 5322,19747C5283,19739 5212,19684 5179,19636C5126,19557 5115,19508 5116,19355C5117,19231 5121,19197 5153,19059C5182,18935 5191,18869 5199,18734C5206,18616 5215,18547 5228,18504C5256,18420 5384,18167 5437,18092C5489,18020 5518,17996 5610,17949C5667,17920 5687,17916 5772,17912L5869,17908L5879,17856C5893,17776 5911,17653 5920,17560C5925,17513 5933,17446 5939,17410C5944,17374 5951,17325 5954,17300C5957,17275 5964,17232 5970,17204C5976,17176 5980,17149 5979,17144C5977,17136 5984,17081 5997,17000C6003,16963 6027,16717 6033,16628L6038,16550L5999,16540C5955,16528 5896,16481 5875,16440C5867,16425 5847,16361 5831,16296C5814,16232 5771,16102 5734,16007C5698,15913 5658,15808 5646,15775C5633,15742 5601,15666 5575,15606C5543,15533 5522,15465 5511,15402L5494,15307L5408,15289C5213,15249 5184,15232 5141,15136C5118,15083 5069,15033 5015,15009C4993,14999 4931,14982 4878,14972C4781,14952 4722,14923 4675,14870C4650,14843 4601,14817 4507,14783C4468,14769 4379,14731 4310,14700C4241,14668 4120,14614 4040,14580C3960,14546 3810,14476 3705,14425C3601,14374 3488,14322 3455,14309C3422,14297 3392,14282 3388,14276C3384,14270 3360,14277 3324,14294C3265,14323 3132,14380 3115,14383C3110,14385 3100,14389 3093,14393C3086,14397 3051,14404 3016,14409C2936,14418 2831,14402 2740,14365C2704,14350 2657,14332 2635,14324L2595,14310L2625,14332C2642,14345 2668,14367 2684,14383C2707,14406 2710,14414 2700,14420C2685,14429 2702,14435 2770,14443C2849,14453 2874,14465 2850,14480C2838,14488 2840,14490 2859,14490C2872,14490 2881,14492 2878,14495C2870,14503 2734,14480 2686,14463C2663,14456 2576,14433 2491,14414C2303,14371 2242,14351 2120,14289C2068,14263 2012,14238 1995,14234C1906,14213 1691,14093 1620,14025C1601,14006 1564,13982 1538,13971C1454,13935 1397,13889 1192,13689C956,13460 899,13391 716,13113C592,12926 575,12898 483,12710C316,12372 227,12052 185,11645C174,11530 170,11176 179,11022L189,10839L154,10738C107,10603 44,10371 31,10283C15,10179 17,10066 36,10022C44,10002 82,9938 119,9880C242,9691 291,9517 325,9155C333,9067 347,8946 354,8885C362,8825 371,8713 375,8637C381,8507 380,8496 357,8432C307,8298 267,8101 224,7792C192,7555 173,7442 162,7403C156,7386 155,7369 158,7365C169,7355 129,7330 101,7330L77,7330L96,7307C113,7289 115,7277 109,7240C92,7140 108,6950 133,6950C139,6950 141,6948 138,6945C121,6928 212,6699 333,6450C421,6269 473,6150 463,6150C460,6150 463,6144 469,6136C475,6128 480,6118 479,6114C478,6109 479,6103 480,6100C481,6097 490,6059 500,6015C523,5916 558,5795 576,5753C584,5736 590,5714 590,5703C590,5681 627,5580 642,5563C648,5556 650,5550 647,5550C640,5550 691,5406 714,5362C723,5345 730,5326 730,5320C730,5307 735,5295 793,5165C812,5121 840,5054 855,5015C870,4977 886,4941 890,4935C894,4930 915,4885 938,4835C1035,4618 1098,4485 1164,4360C1183,4324 1204,4282 1212,4265C1272,4140 1493,3720 1519,3680C1528,3666 1541,3644 1548,3630C1555,3616 1571,3587 1583,3565C1628,3488 1653,3445 1689,3382C1741,3291 1741,3291 1790,3215C1843,3132 1843,3132 1913,3005C1944,2950 1977,2892 1987,2875C1997,2859 2015,2827 2028,2805C2041,2783 2074,2733 2100,2695C2126,2656 2159,2602 2173,2573C2188,2545 2205,2516 2212,2509C2219,2501 2237,2470 2252,2440C2280,2384 2324,2305 2376,2215C2393,2188 2412,2150 2419,2133C2426,2115 2436,2100 2440,2100C2444,2100 2453,2085 2460,2068C2468,2050 2479,2028 2486,2020C2493,2012 2513,1976 2531,1940C2548,1904 2574,1861 2586,1844C2599,1827 2610,1810 2610,1806C2610,1802 2627,1776 2649,1747C2670,1718 2700,1673 2716,1645C2732,1618 2753,1586 2763,1575C2774,1564 2797,1533 2815,1505C2832,1478 2857,1446 2869,1436C2880,1425 2890,1413 2890,1409C2890,1405 2918,1365 2952,1320C3064,1176 3066,1169 3072,1006C3077,888 3081,857 3098,824C3128,768 3211,685 3275,649C3305,632 3330,613 3330,606C3330,600 3321,561 3309,520C3297,479 3275,388 3260,319C3244,248 3219,167 3202,134C3186,101 3165,58 3157,38L3141,0L8158,1C10917,2 13163,5 13148,7C13115,12 13113,21 13139,37C13154,46 13162,45 13179,34C13190,26 13200,23 13200,29C13200,34 13195,40 13188,42C13180,45 13180,51 13188,66C13194,76 13200,81 13200,75C13201,52 13220,97 13220,123C13220,138 13225,150 13230,150C13236,150 13238,140 13234,126C13231,113 13233,99 13239,96C13246,91 13250,100 13250,120C13250,138 13257,179 13265,211C13274,244 13278,276 13274,281C13270,287 13274,296 13281,301C13291,307 13288,310 13270,311C13247,311 13247,312 13265,320C13276,325 13281,330 13275,331C13260,334 13359,347 13500,360C13627,372 13792,399 13838,415C13845,418 13890,423 13938,426C13986,430 14049,441 14079,451C14109,462 14137,470 14141,470C14145,470 14150,453 14152,433C14156,379 14185,376 14194,428C14198,458 14205,469 14222,473C14235,476 14278,492 14319,509C14359,526 14399,540 14408,540C14416,540 14455,554 14494,571C14639,634 14686,652 14717,654C14729,656 14746,662 14754,669C14762,676 14774,679 14780,675C14785,672 14799,676 14811,684C14823,692 14838,696 14845,694C14852,691 14874,698 14894,709C14914,721 14959,739 14993,751C15027,762 15085,787 15121,805C15158,824 15205,846 15226,854C15248,862 15301,882 15345,899C15389,916 15433,930 15443,930C15454,930 15474,938 15488,949C15503,959 15529,970 15545,973C15562,975 15606,990 15644,1004C15682,1018 15721,1030 15731,1030C15740,1030 15761,1036 15777,1044C15792,1052 15825,1066 15850,1075C15875,1084 15903,1096 15913,1101C15923,1106 15935,1108 15941,1104C15946,1101 15957,1103 15964,1109C15977,1120 16064,1151 16200,1195C16293,1225 16372,1253 16385,1262C16391,1265 16426,1277 16463,1289C16501,1300 16537,1313 16543,1317C16550,1321 16566,1326 16579,1328C16593,1330 16611,1335 16619,1339C16643,1352 16891,1433 17100,1496C17125,1503 17174,1519 17210,1530C17246,1541 17313,1559 17360,1569C17407,1580 17464,1594 17487,1599C17554,1616 17682,1680 17717,1714C17735,1731 17763,1756 17779,1770C17796,1784 17810,1800 17810,1806C17810,1812 17818,1825 17829,1834C17854,1857 17929,2001 17945,2059C17952,2084 17964,2139 17970,2180C17977,2221 17987,2263 17992,2274C17999,2286 17999,2295 17992,2299C17969,2313 18008,2687 18057,2915C18079,3016 18082,3304 18063,3400C18037,3531 17999,3703 17985,3750C17978,3775 17964,3822 17955,3855C17924,3963 17869,4134 17845,4195C17832,4228 17810,4289 17797,4330C17783,4371 17763,4429 17751,4458C17733,4507 17713,4600 17659,4885C17648,4946 17629,5038 17619,5090C17608,5142 17597,5194 17596,5205C17592,5225 17563,5348 17534,5463C17526,5494 17514,5546 17506,5578C17478,5686 17473,5706 17411,5888C17355,6055 17310,6169 17220,6380C17151,6540 16876,7061 16795,7185C16766,7229 16658,7393 16613,7460C16588,7498 16406,7738 16355,7800C16282,7890 16280,7893 16200,8093C16131,8263 16056,8446 15970,8650C15832,8978 15700,9236 15564,9440C15475,9575 15434,9665 15400,9805C15373,9915 15337,9985 15288,10020C15268,10035 15191,10071 15119,10101L14987,10155L14950,10235C14910,10323 14909,10344 14948,10387C14963,10404 14988,10443 15004,10475C15087,10637 14987,10833 14706,11060C14577,11164 14581,11159 14579,11220C14577,11250 14573,11282 14570,11290C14527,11389 14495,11433 14386,11547C14315,11620 14241,11710 14203,11768C14168,11821 14118,11888 14091,11915C14043,11966 14015,12005 13965,12095C13934,12150 13856,12240 13708,12394C13655,12450 13599,12514 13583,12536C13537,12605 13405,12704 13308,12744C13259,12763 13195,12820 13178,12857C13170,12876 13040,12984 12994,13011C12916,13055 12800,13090 12732,13089C12688,13088 12654,13096 12594,13120C12465,13173 12393,13199 12240,13251C12160,13278 12055,13318 12005,13339C11956,13361 11887,13390 11854,13403C11743,13449 11461,13531 11372,13544C11293,13555 11115,13627 10904,13733L10793,13789L10787,13917C10783,13987 10780,14080 10780,14122C10780,14164 10773,14228 10765,14265C10749,14331 10712,14420 10699,14420C10691,14420 10580,14584 10580,14597C10580,14602 10569,14617 10555,14630C10541,14643 10530,14657 10530,14662C10530,14671 10463,14769 10446,14785C10440,14791 10427,14806 10418,14820C10409,14834 10361,14895 10310,14955C10260,15016 10210,15081 10200,15100C10190,15119 10138,15185 10086,15245C10033,15306 9957,15398 9917,15451C9831,15565 9751,15658 9691,15714C9667,15737 9628,15773 9605,15795C9582,15817 9538,15859 9508,15887C9458,15934 9433,15980 9448,15995C9451,15998 9455,16010 9457,16021C9461,16049 9468,16060 9512,16109C9533,16131 9557,16150 9565,16150C9574,16150 9586,16161 9592,16175C9598,16189 9606,16200 9610,16200C9613,16200 9635,16218 9659,16240C9682,16262 9706,16278 9711,16274C9716,16271 9720,16276 9720,16284C9720,16292 9738,16314 9760,16331C9782,16349 9800,16370 9800,16379C9800,16391 9803,16391 9812,16382C9828,16366 9840,16367 9840,16385C9840,16409 9875,16467 9886,16463C9892,16461 9903,16472 9909,16487C9923,16519 9958,16560 9986,16576C9996,16582 10007,16595 10008,16604C10010,16614 10020,16630 10031,16641C10041,16651 10050,16668 10050,16678C10050,16688 10061,16707 10075,16720C10098,16742 10100,16742 10101,16724C10102,16696 10128,16769 10129,16803C10130,16818 10137,16833 10145,16836C10153,16840 10160,16851 10160,16862C10160,16874 10169,16884 10181,16887C10193,16891 10203,16904 10207,16922C10210,16937 10217,16953 10221,16956C10226,16959 10230,16969 10230,16978C10230,16987 10237,17008 10245,17024C10253,17039 10260,17062 10260,17075C10260,17097 10282,17125 10292,17115C10295,17112 10303,17131 10309,17157C10316,17183 10331,17215 10342,17227C10354,17240 10360,17256 10356,17265C10352,17277 10356,17284 10370,17287C10381,17290 10387,17297 10384,17302C10372,17321 10391,17379 10411,17385C10425,17390 10430,17398 10427,17411C10424,17421 10426,17433 10432,17436C10437,17439 10439,17447 10437,17454C10429,17474 10449,17574 10462,17585C10469,17590 10476,17617 10478,17643C10479,17669 10487,17701 10495,17713C10510,17737 10523,17790 10546,17918C10554,17964 10567,18012 10576,18025C10585,18038 10595,18088 10600,18140C10605,18193 10615,18241 10624,18255C10637,18274 10640,18310 10641,18427C10641,18508 10646,18598 10650,18625C10685,18815 10690,18873 10694,19070C10696,19190 10693,19290 10688,19297C10678,19310 10672,19589 10682,19593C10686,19594 10692,19622 10695,19655C10702,19727 10718,19780 10732,19780C10738,19780 10740,19790 10736,19805C10732,19819 10733,19830 10738,19830C10743,19830 10755,19846 10766,19865C10778,19887 10790,19898 10799,19895C10808,19891 10811,19895 10808,19908C10802,19929 10826,19957 10833,19937C10835,19930 10844,19939 10853,19956C10862,19973 10867,19990 10864,19992C10862,19995 10870,19995 10883,19993C10897,19990 10911,19993 10914,19999C10918,20005 10943,20010 10969,20010C11000,20010 11022,20015 11030,20025C11039,20035 11039,20040 11031,20040C11025,20040 11020,20046 11020,20054C11020,20062 11015,20070 11008,20072C10987,20079 10996,20137 11023,20173C11037,20192 11073,20219 11103,20233C11156,20258 11240,20333 11240,20355C11240,20372 11281,20444 11296,20453C11304,20457 11310,20466 11310,20473C11310,20480 11319,20502 11330,20523C11341,20543 11350,20563 11349,20566C11349,20569 11352,20575 11356,20578C11360,20582 11359,20578 11355,20570C11350,20562 11361,20570 11379,20588C11397,20605 11416,20620 11421,20620C11426,20620 11432,20630 11435,20643C11439,20656 11453,20678 11468,20692C11493,20715 11508,20739 11529,20793C11557,20863 11562,20883 11556,20910C11553,20927 11555,20940 11560,20940C11566,20940 11570,20933 11570,20923C11570,20888 11581,20920 11584,20963C11585,20993 11582,21011 11574,21014C11561,21019 11556,21043 11546,21128C11541,21176 11555,21185 11565,21139L11572,21108L11596,21131C11609,21143 11620,21159 11620,21167C11620,21174 11636,21200 11655,21226C11709,21297 11702,21314 11643,21253C11611,21219 11608,21218 11615,21240C11624,21271 11640,21291 11650,21285C11654,21282 11663,21287 11670,21295C11677,21303 11686,21307 11691,21304C11696,21301 11703,21305 11706,21313C11709,21322 11720,21325 11738,21322C11764,21317 11764,21318 11748,21337C11734,21352 11733,21359 11742,21368C11749,21375 11758,21380 11763,21380C11769,21380 11778,21387 11785,21397C11794,21410 11794,21420 11783,21444C11741,21536 11724,21546 11685,21504C11656,21472 11640,21478 11664,21512C11685,21542 11684,21556 11663,21539C11647,21526 11646,21527 11659,21543C11667,21552 11675,21558 11678,21556C11680,21553 11696,21558 11712,21566C11742,21582 11749,21619 11722,21628C11713,21631 11711,21625 11715,21607C11719,21593 11717,21579 11711,21576C11705,21572 11700,21576 11700,21586C11700,21598 11694,21601 11673,21597L11645,21592L11672,21615C11695,21635 11698,21643 11693,21677C11690,21698 11682,21718 11676,21722C11668,21727 11669,21730 11677,21730C11684,21730 11687,21737 11683,21747C11678,21760 11681,21762 11694,21757C11704,21753 11709,21754 11705,21760C11702,21766 11692,21770 11684,21770C11676,21770 11670,21775 11670,21780C11670,21786 11677,21790 11686,21790C11700,21790 11701,21792 11689,21806C11677,21821 11678,21822 11698,21816C11715,21810 11720,21813 11720,21825C11720,21839 11714,21841 11683,21835C11662,21831 11648,21831 11652,21835C11656,21839 11685,21845 11716,21849C11774,21855 11797,21873 11761,21885C11740,21891 11739,21921 11759,21973C11773,22009 11773,22020 11759,22020C11754,22020 11752,22016 11755,22010C11763,21996 11742,21960 11725,21960C11717,21960 11707,21953 11703,21945C11696,21934 11687,21933 11665,21939C11648,21944 11640,21949 11645,21949C11664,21951 11625,21970 11602,21970C11589,21970 11582,21974 11585,21980C11589,21986 11595,21988 11600,21985C11604,21982 11613,21987 11620,21995C11627,22003 11636,22008 11640,22005C11644,22002 11648,22012 11648,22025C11648,22045 11642,22050 11622,22050C11606,22050 11600,22054 11605,22059C11621,22074 11655,22076 11652,22062C11651,22055 11656,22047 11664,22044C11672,22041 11676,22031 11674,22022C11670,22009 11672,22010 11685,22025C11694,22036 11705,22044 11710,22043C11715,22042 11722,22055 11725,22073C11729,22090 11737,22110 11742,22117C11747,22124 11735,22121 11715,22111C11694,22101 11664,22095 11647,22096C11630,22098 11612,22094 11606,22086C11589,22066 11560,22058 11560,22074C11560,22082 11564,22090 11570,22092C11584,22096 11587,22145 11574,22143C11567,22142 11570,22156 11581,22180C11604,22227 11605,22241 11585,22214C11577,22203 11570,22200 11570,22208C11570,22214 11579,22229 11590,22240C11601,22251 11612,22278 11615,22302C11617,22326 11617,22336 11614,22325C11602,22285 11593,22291 11592,22339C11592,22367 11595,22392 11601,22395C11606,22399 11610,22390 11610,22376C11610,22362 11615,22350 11620,22350C11633,22350 11633,22397 11620,22405C11614,22409 11612,22415 11615,22420C11618,22424 11614,22433 11607,22439C11595,22448 11582,22481 11564,22547C11563,22553 11544,22560 11523,22562C11486,22565 11485,22566 11488,22600C11490,22624 11488,22631 11482,22621C11469,22602 11450,22616 11450,22646C11450,22679 11430,22676 11429,22643C11429,22627 11426,22621 11423,22628C11419,22637 11410,22636 11386,22620C11368,22609 11350,22603 11347,22607C11343,22610 11340,22602 11340,22587C11340,22543 11330,22530 11304,22536C11277,22543 11273,22531 11291,22498C11298,22485 11298,22480 11292,22484C11286,22487 11279,22486 11275,22480C11271,22474 11264,22472 11259,22475C11254,22478 11253,22473 11257,22464C11262,22450 11259,22448 11239,22453C11223,22457 11209,22453 11192,22437C11162,22409 11140,22422 11122,22478C11114,22501 11104,22517 11099,22514C11094,22511 11090,22514 11090,22519C11090,22525 11096,22530 11103,22531C11109,22531 11099,22538 11080,22547C11061,22555 11038,22568 11030,22575C11009,22593 10965,22605 10974,22591C10978,22585 10977,22580 10971,22580C10966,22580 10959,22592 10956,22608C10951,22628 10939,22640 10905,22653C10880,22664 10862,22676 10865,22680C10871,22689 10789,22750 10771,22750C10766,22750 10746,22764 10728,22780C10710,22797 10686,22810 10675,22810C10635,22810 10610,22823 10604,22845C10601,22858 10592,22871 10584,22874C10576,22877 10573,22886 10577,22896C10581,22908 10580,22911 10572,22906C10565,22902 10560,22904 10560,22909C10560,22915 10564,22920 10570,22920C10581,22920 10577,23014 10563,23075C10558,23097 10542,23135 10529,23158C10516,23182 10498,23215 10489,23231C10470,23266 10410,23330 10322,23413C10279,23453 10260,23478 10260,23495C10260,23508 10255,23522 10250,23525C10244,23529 10243,23537 10246,23543C10250,23550 10250,23552 10245,23548C10241,23544 10231,23548 10224,23558C10216,23569 10215,23577 10222,23581C10227,23585 10216,23600 10196,23615C10176,23630 10160,23647 10160,23654C10159,23660 10148,23679 10135,23695C10116,23717 10108,23722 10102,23712C10089,23693 10056,23734 10063,23760C10067,23775 10065,23780 10055,23776C10035,23769 10007,23794 10004,23825C10000,23862 9993,23867 9975,23844C9961,23825 9961,23825 9938,23848C9920,23866 9919,23870 9933,23864C9964,23853 9916,23922 9878,23944C9860,23955 9831,23979 9813,23997C9795,24016 9776,24029 9770,24025C9763,24021 9760,24025 9762,24036C9764,24048 9749,24063 9713,24084C9642,24126 9623,24147 9674,24126C9695,24117 9717,24113 9722,24116C9727,24120 9692,24142 9642,24166C9554,24209 9552,24210 9419,24215C9345,24218 9275,24223 9262,24226C9249,24228 9234,24228 9228,24224C9223,24220 9194,24218 9164,24218C9109,24218 9080,24231 9080,24257C9080,24265 9073,24278 9065,24287C9053,24299 9052,24305 9061,24316C9074,24332 9094,24335 9085,24320C9073,24301 9095,24310 9114,24331C9132,24352 9132,24353 9101,24348C9070,24344 9070,24344 9076,24377C9080,24398 9078,24410 9071,24410C9065,24410 9060,24416 9060,24423C9060,24431 9038,24435 8985,24436C8917,24437 8907,24440 8885,24464C8871,24479 8860,24494 8860,24498C8860,24502 8840,24527 8815,24553C8778,24591 8763,24600 8736,24600C8713,24600 8698,24607 8686,24623C8676,24637 8672,24639 8676,24627C8681,24614 8678,24611 8664,24617C8653,24621 8649,24620 8654,24612C8657,24606 8655,24598 8649,24594C8641,24590 8640,24591 8644,24598C8649,24606 8644,24610 8631,24610C8620,24610 8608,24615 8605,24620C8602,24626 8588,24630 8575,24630C8562,24630 8548,24626 8545,24620C8542,24615 8548,24610 8560,24610C8579,24610 8630,24574 8619,24568C8574,24540 8567,24538 8559,24553C8553,24562 8542,24566 8530,24563C8519,24560 8510,24563 8510,24569C8510,24575 8497,24580 8481,24580C8445,24580 8433,24595 8457,24608C8470,24616 8472,24621 8462,24632C8453,24643 8453,24649 8463,24659C8473,24669 8466,24671 8428,24666C8398,24662 8380,24663 8380,24670C8380,24676 8339,24680 8270,24680C8187,24680 8161,24677 8163,24668C8164,24661 8159,24656 8151,24658C8135,24661 8100,24632 8100,24614C8100,24585 8036,24490 8024,24502C8021,24505 8023,24525 8029,24545C8034,24566 8037,24595 8034,24610C8030,24625 8033,24641 8039,24644C8045,24648 8050,24646 8050,24640C8050,24634 8055,24632 8061,24636C8069,24641 8068,24645 8057,24651C8031,24666 8013,24651 8014,24617C8015,24589 8011,24584 7982,24575C7960,24569 7950,24560 7950,24545C7950,24534 7946,24519 7941,24511C7928,24490 7918,24515 7925,24553C7931,24584 7930,24584 7915,24565C7902,24549 7898,24548 7891,24559C7886,24567 7884,24580 7888,24588C7892,24599 7889,24601 7880,24595C7871,24590 7869,24591 7874,24599C7879,24606 7879,24622 7876,24636C7871,24655 7864,24661 7847,24658C7829,24656 7826,24650 7828,24623C7830,24603 7827,24590 7820,24590C7801,24590 7798,24618 7813,24650C7826,24675 7826,24680 7814,24680C7806,24680 7800,24676 7800,24670C7800,24665 7793,24660 7785,24660C7777,24660 7770,24665 7770,24670C7770,24693 7751,24678 7748,24653L7744,24625L7734,24649C7727,24665 7721,24669 7716,24662C7705,24644 7690,24647 7697,24665C7706,24691 7621,24682 7605,24655ZM7690,24606C7690,24598 7686,24588 7680,24585C7675,24582 7670,24588 7670,24599C7670,24611 7675,24620 7680,24620C7686,24620 7690,24614 7690,24606ZM7858,24559C7855,24551 7851,24556 7847,24569C7843,24586 7844,24590 7852,24582C7857,24577 7860,24566 7858,24559ZM7463,24543C7458,24532 7460,24529 7469,24535C7479,24541 7480,24538 7471,24521C7454,24491 7440,24495 7440,24530C7440,24550 7445,24560 7455,24560C7464,24560 7467,24554 7463,24543ZM7975,24518C7971,24500 7963,24481 7958,24475C7951,24468 7950,24473 7955,24489C7959,24502 7964,24520 7965,24529C7970,24551 7969,24550 7976,24550C7979,24550 7979,24535 7975,24518ZM8540,24519C8540,24514 8536,24510 8530,24510C8525,24510 8520,24517 8520,24526C8520,24534 8525,24538 8530,24535C8536,24532 8540,24525 8540,24519ZM9020,24380C9020,24375 9015,24370 9009,24370C9004,24370 9002,24375 9005,24380C9008,24386 9013,24390 9016,24390C9018,24390 9020,24386 9020,24380ZM7224,24355C7227,24347 7225,24340 7220,24340C7214,24340 7210,24347 7210,24355C7210,24363 7212,24370 7214,24370C7216,24370 7220,24363 7224,24355ZM7120,24307C7120,24299 7114,24293 7106,24293C7098,24293 7094,24299 7097,24307C7100,24314 7106,24320 7111,24320C7116,24320 7120,24314 7120,24307ZM9070,24254C9070,24252 9063,24250 9055,24250C9047,24250 9040,24254 9040,24260C9040,24265 9047,24267 9055,24264C9063,24260 9070,24256 9070,24254ZM9440,24190C9440,24185 9438,24180 9436,24180C9433,24180 9428,24185 9425,24190C9422,24196 9424,24200 9429,24200C9435,24200 9440,24196 9440,24190ZM9491,24174C9503,24160 9502,24158 9486,24161C9475,24163 9465,24171 9462,24178C9457,24195 9475,24193 9491,24174ZM9603,24157C9608,24143 9586,24138 9560,24147C9549,24151 9552,24155 9570,24160C9584,24165 9596,24168 9596,24169C9597,24170 9600,24164 9603,24157ZM9640,24104C9640,24096 9636,24092 9630,24095C9625,24098 9620,24105 9620,24111C9620,24116 9625,24120 9630,24120C9636,24120 9640,24113 9640,24104ZM9910,23889C9910,23883 9906,23882 9900,23885C9895,23888 9890,23896 9890,23901C9890,23907 9895,23908 9900,23905C9906,23902 9910,23894 9910,23889ZM6608,23780C6590,23771 6569,23752 6563,23739C6553,23719 6550,23718 6550,23733C6550,23758 6607,23811 6626,23803C6636,23799 6631,23793 6608,23780ZM6650,23755C6643,23747 6632,23740 6626,23740C6620,23740 6602,23722 6586,23700C6569,23677 6545,23658 6529,23655C6509,23650 6503,23644 6507,23631C6510,23620 6505,23610 6494,23606C6469,23596 6469,23601 6493,23649C6505,23672 6516,23687 6518,23681C6523,23667 6540,23667 6540,23681C6540,23695 6592,23750 6606,23750C6612,23750 6625,23759 6636,23771C6656,23794 6670,23779 6650,23755ZM5525,23680C5529,23674 5520,23670 5505,23670C5490,23670 5481,23674 5485,23680C5488,23686 5497,23690 5505,23690C5513,23690 5522,23686 5525,23680ZM6020,23509C6061,23473 6062,23470 6035,23480C6004,23492 5960,23528 5960,23542C5960,23557 5975,23549 6020,23509ZM5210,22810C5210,22805 5206,22800 5200,22800C5195,22800 5190,22805 5190,22810C5190,22816 5195,22820 5200,22820C5206,22820 5210,22816 5210,22810ZM5160,22777C5160,22775 5150,22765 5138,22754L5115,22735L5134,22758C5152,22779 5160,22785 5160,22777ZM5100,22701C5100,22689 5080,22676 5073,22683C5066,22690 5079,22710 5091,22710C5096,22710 5100,22706 5100,22701ZM5041,22467C5031,22458 5030,22459 5036,22473C5039,22483 5045,22488 5048,22485C5051,22482 5048,22474 5041,22467ZM5064,22225C5060,22217 5056,22210 5054,22210C5052,22210 5050,22217 5050,22225C5050,22233 5054,22240 5060,22240C5065,22240 5067,22233 5064,22225ZM11692,22058C11686,22052 11677,22050 11673,22054C11669,22058 11672,22065 11680,22070C11699,22082 11707,22073 11692,22058ZM11570,22000C11570,21995 11566,21990 11560,21990C11555,21990 11550,21995 11550,22000C11550,22006 11555,22010 11560,22010C11566,22010 11570,22006 11570,22000ZM5280,21924C5280,21915 5249,21887 5244,21892C5235,21901 5252,21930 5266,21930C5274,21930 5280,21927 5280,21924ZM5210,21885C5210,21883 5205,21858 5199,21830C5187,21774 5167,21767 5162,21818C5159,21845 5162,21849 5176,21843C5187,21839 5191,21840 5187,21847C5179,21860 5189,21890 5201,21890C5206,21890 5210,21888 5210,21885ZM11655,21647C11641,21620 11639,21619 11644,21640C11647,21654 11650,21676 11650,21690C11651,21712 11652,21713 11661,21697C11669,21683 11668,21671 11655,21647ZM11760,21469C11760,21463 11756,21462 11750,21465C11745,21468 11740,21476 11740,21481C11740,21487 11745,21488 11750,21485C11756,21482 11760,21474 11760,21469ZM11725,21412C11722,21409 11714,21412 11707,21419C11698,21429 11699,21430 11713,21424C11723,21421 11728,21415 11725,21412ZM11715,21390C11718,21385 11714,21380 11705,21380C11696,21380 11692,21385 11695,21390C11698,21396 11703,21400 11705,21400C11707,21400 11712,21396 11715,21390ZM11173,20305C11170,20296 11165,20291 11163,20294C11160,20297 11161,20303 11165,20309C11174,20325 11180,20322 11173,20305ZM10973,20130C10976,20119 10974,20107 10969,20104C10964,20101 10960,20110 10960,20124C10960,20155 10966,20158 10973,20130ZM2680,14400C2672,14395 2661,14390 2655,14390C2650,14390 2652,14395 2660,14400C2668,14405 2680,14410 2685,14410C2691,14410 2688,14405 2680,14400ZM2384,14275C2399,14264 2400,14260 2389,14260C2381,14260 2365,14267 2354,14275C2340,14286 2339,14289 2350,14289C2358,14289 2374,14283 2384,14275ZM2303,14273C2296,14271 2282,14271 2273,14273C2263,14276 2269,14278 2285,14278C2302,14278 2309,14276 2303,14273ZM2240,14260C2240,14255 2233,14250 2225,14250C2217,14250 2210,14255 2210,14260C2210,14266 2217,14270 2225,14270C2233,14270 2240,14266 2240,14260ZM2120,14250C2112,14245 2096,14241 2085,14241L2065,14241L2085,14250C2096,14255 2112,14259 2120,14259C2133,14260 2133,14259 2120,14250ZM2030,14220C2030,14215 2025,14210 2019,14210C2014,14210 2012,14215 2015,14220C2018,14226 2023,14230 2026,14230C2028,14230 2030,14226 2030,14220ZM2322,14211C2314,14207 2309,14199 2310,14194C2311,14189 2307,14184 2300,14182C2287,14177 2291,14202 2305,14212C2311,14216 2320,14220 2325,14220C2331,14220 2329,14216 2322,14211ZM12806,13033C12800,13027 12770,13042 12770,13051C12770,13056 12779,13055 12790,13048C12800,13041 12808,13034 12806,13033ZM13240,300C13240,295 13238,290 13236,290C13233,290 13228,295 13225,300C13222,306 13224,310 13229,310C13235,310 13240,306 13240,300Z" style="fill-rule:nonzero;"/>
    </g>
    <g transform="matrix(0.1,0,0,-0.1,0,2468)">
        <path d="M7390,24643C7390,24639 7395,24628 7400,24620C7408,24607 7410,24607 7410,24622C7410,24631 7406,24642 7400,24645C7395,24648 7390,24648 7390,24643Z" style="fill-rule:nonzero;"/>
    </g>
    <g transform="matrix(0.1,0,0,-0.1,0,2468)">
        <path d="M8565,24590C8562,24585 8564,24580 8569,24580C8575,24580 8580,24585 8580,24590C8580,24596 8578,24600 8576,24600C8573,24600 8568,24596 8565,24590Z" style="fill-rule:nonzero;"/>
    </g>
    <g transform="matrix(0.1,0,0,-0.1,0,2468)">
        <path d="M7165,24460C7082,24414 7032,24375 7042,24364C7046,24360 7062,24369 7077,24384C7092,24399 7139,24428 7182,24448C7254,24483 7277,24500 7248,24500C7241,24500 7204,24482 7165,24460Z" style="fill-rule:nonzero;"/>
    </g>
    <g transform="matrix(0.1,0,0,-0.1,0,2468)">
        <path d="M7015,24310C7018,24305 7023,24300 7026,24300C7028,24300 7030,24305 7030,24310C7030,24316 7025,24320 7019,24320C7014,24320 7012,24316 7015,24310Z" style="fill-rule:nonzero;"/>
    </g>
    <g transform="matrix(0.1,0,0,-0.1,0,2468)">
        <path d="M6603,23955C6603,23948 6609,23944 6617,23947C6624,23950 6630,23953 6630,23955C6630,23957 6624,23960 6617,23963C6609,23966 6603,23962 6603,23955Z" style="fill-rule:nonzero;"/>
    </g>
    <g transform="matrix(0.1,0,0,-0.1,0,2468)">
        <path d="M6277,23911C6268,23895 6260,23876 6260,23868C6261,23861 6270,23872 6281,23893C6305,23939 6302,23952 6277,23911Z" style="fill-rule:nonzero;"/>
    </g>
    <g transform="matrix(0.1,0,0,-0.1,0,2468)">
        <path d="M6390,23936C6390,23934 6397,23927 6405,23920C6418,23909 6419,23910 6414,23924C6409,23938 6390,23947 6390,23936Z" style="fill-rule:nonzero;"/>
    </g>
    <g transform="matrix(0.1,0,0,-0.1,0,2468)">
        <path d="M6410,23875C6410,23858 6415,23850 6423,23853C6429,23855 6435,23865 6435,23875C6435,23885 6429,23895 6423,23898C6415,23900 6410,23892 6410,23875Z" style="fill-rule:nonzero;"/>
    </g>
    <g transform="matrix(0.1,0,0,-0.1,0,2468)">
        <path d="M6210,23751C6210,23745 6214,23739 6218,23736C6223,23733 6227,23737 6227,23745C6227,23753 6223,23760 6218,23760C6214,23760 6210,23756 6210,23751Z" style="fill-rule:nonzero;"/>
    </g>
    <g transform="matrix(0.1,0,0,-0.1,0,2468)">
        <path d="M6051,23624C6051,23613 6054,23610 6057,23618C6060,23625 6059,23634 6056,23637C6053,23641 6050,23635 6051,23624Z" style="fill-rule:nonzero;"/>
    </g>
    <g transform="matrix(0.1,0,0,-0.1,0,2468)">
        <path d="M6141,23620C6155,23589 6160,23584 6160,23596C6160,23602 6153,23615 6144,23626C6130,23644 6130,23644 6141,23620Z" style="fill-rule:nonzero;"/>
    </g>
    <g transform="matrix(0.1,0,0,-0.1,0,2468)">
        <path d="M6123,23579C6125,23566 6131,23556 6136,23557C6151,23560 6151,23577 6135,23590C6122,23601 6120,23599 6123,23579Z" style="fill-rule:nonzero;"/>
    </g>
    <g transform="matrix(0.1,0,0,-0.1,0,2468)">
        <path d="M4970,22660C4970,22655 4975,22650 4981,22650C4986,22650 4988,22655 4985,22660C4982,22666 4977,22670 4974,22670C4972,22670 4970,22666 4970,22660Z" style="fill-rule:nonzero;"/>
    </g>
    <g transform="matrix(0.1,0,0,-0.1,0,2468)">
        <path d="M4925,22590C4922,22585 4923,22580 4929,22580C4934,22580 4942,22585 4945,22590C4948,22596 4947,22600 4941,22600C4936,22600 4928,22596 4925,22590Z" style="fill-rule:nonzero;"/>
    </g>
    <g transform="matrix(0.1,0,0,-0.1,0,2468)">
        <path d="M5055,22399C5044,22382 5056,22378 5070,22395C5078,22404 5078,22410 5072,22410C5066,22410 5058,22405 5055,22399Z" style="fill-rule:nonzero;"/>
    </g>
    <g transform="matrix(0.1,0,0,-0.1,0,2468)">
        <path d="M5070,21991C5070,21986 5075,21978 5080,21975C5086,21972 5090,21973 5090,21979C5090,21984 5086,21992 5080,21995C5075,21998 5070,21997 5070,21991Z" style="fill-rule:nonzero;"/>
    </g>
    <g transform="matrix(0.1,0,0,-0.1,0,2468)">
        <path d="M11707,21716C11704,21708 11705,21698 11711,21694C11727,21685 11733,21696 11722,21715C11714,21730 11712,21731 11707,21716Z" style="fill-rule:nonzero;"/>
    </g>
    <g transform="matrix(0.1,0,0,-0.1,0,2468)">
        <path d="M11718,21673C11725,21670 11734,21671 11737,21674C11741,21677 11735,21680 11724,21679C11713,21679 11710,21676 11718,21673Z" style="fill-rule:nonzero;"/>
    </g>
    <g transform="matrix(0.1,0,0,-0.1,0,2468)">
        <path d="M5128,21573C5135,21570 5144,21571 5147,21574C5151,21577 5145,21580 5134,21579C5123,21579 5120,21576 5128,21573Z" style="fill-rule:nonzero;"/>
    </g>
    <g transform="matrix(0.1,0,0,-0.1,0,2468)">
        <path d="M11820,21430C11820,21425 11825,21420 11831,21420C11836,21420 11838,21425 11835,21430C11832,21436 11827,21440 11824,21440C11822,21440 11820,21436 11820,21430Z" style="fill-rule:nonzero;"/>
    </g>
    <g transform="matrix(0.1,0,0,-0.1,0,2468)">
        <path d="M11663,21183C11656,21181 11650,21171 11650,21162C11651,21146 11652,21146 11664,21162C11671,21172 11680,21177 11683,21173C11687,21170 11690,21172 11690,21178C11690,21191 11683,21192 11663,21183Z" style="fill-rule:nonzero;"/>
    </g>
</svg>
