<?xml version="1.0" encoding="UTF-8" standalone="no"?><!DOCTYPE svg PUBLIC "-//W3C//DTD SVG 1.1//EN" "http://www.w3.org/Graphics/SVG/1.1/DTD/svg11.dtd"><svg width="100%" height="100%" viewBox="0 0 256 256" version="1.1" xmlns="http://www.w3.org/2000/svg" xmlns:xlink="http://www.w3.org/1999/xlink" xml:space="preserve" xmlns:serif="http://www.serif.com/" style="fill-rule:evenodd;clip-rule:evenodd;stroke-linejoin:round;stroke-miterlimit:2;"><path d="M127.803,126.966l61.663,-61.664l0,125.64l-30.831,-30.318l-30.832,30.318l-30.832,-30.318l-30.832,30.318l0,-125.64l61.664,61.664Z" style="fill:#fff;"/><path d="M100.568,3.639c-64.747,14.131 -108.939,77.85 -98.662,143.11c10.535,68.087 76.309,118.189 142.084,107.912c58.837,-9.25 100.974,-50.873 109.966,-108.425c10.278,-65.518 -34.429,-128.723 -100.203,-142.854c-20.555,-4.368 -32.63,-4.368 -53.185,0.257Zm27.235,123.327l61.663,-61.664l0,125.64l-30.831,-30.318l-30.832,30.318l-30.832,-30.318l-30.832,30.318l0,-125.64l61.664,61.664Z" style="fill:url(#_Linear1);fill-rule:nonzero;"/><defs><linearGradient id="_Linear1" x1="0" y1="0" x2="1" y2="0" gradientUnits="userSpaceOnUse" gradientTransform="matrix(-180.094,180.094,180.094,180.094,217.892,37.6712)"><stop offset="0" style="stop-color:#d73f85;stop-opacity:1"/><stop offset="1" style="stop-color:#a35edd;stop-opacity:1"/></linearGradient></defs></svg>