<?xml version="1.0" encoding="UTF-8" standalone="no"?><!DOCTYPE svg PUBLIC "-//W3C//DTD SVG 1.1//EN" "http://www.w3.org/Graphics/SVG/1.1/DTD/svg11.dtd"><svg width="100%" height="100%" viewBox="0 0 256 256" version="1.1" xmlns="http://www.w3.org/2000/svg" xmlns:xlink="http://www.w3.org/1999/xlink" xml:space="preserve" xmlns:serif="http://www.serif.com/" style="fill-rule:evenodd;clip-rule:evenodd;stroke-linejoin:round;stroke-miterlimit:2;"><path d="M50.699,159.089l156.225,-52.153c-3.122,-19.523 -5.346,-32.565 -7.924,-42.518c-2.777,-10.706 -4.978,-13.57 -5.842,-14.563c-3.012,-3.447 -6.763,-6.171 -10.973,-7.969c-1.216,-0.52 -4.625,-1.728 -15.654,-1.064c-11.669,0.704 -26.987,3.088 -51.245,6.929c-24.25,3.84 -39.56,6.313 -50.87,9.241c-10.7,2.777 -13.573,4.985 -14.566,5.85c-3.441,3.015 -6.163,6.764 -7.963,10.97c-0.52,1.215 -1.729,4.624 -1.064,15.658c0.704,11.665 3.089,26.988 6.93,51.24c1.073,6.8 2.041,12.882 2.946,18.379" style="fill:url(#_Linear1);fill-rule:nonzero;"/><path d="M7.625,147.063c-7.427,-46.92 -11.149,-70.38 -3.098,-89.214c4.197,-9.824 10.555,-18.576 18.6,-25.605c15.423,-13.466 38.88,-17.178 85.796,-24.611c46.931,-7.443 70.39,-11.154 89.237,-3.105c9.82,4.197 18.569,10.553 25.595,18.595c13.477,15.426 17.19,38.886 24.618,85.814c7.435,46.92 11.149,70.387 3.097,89.214c-4.194,9.823 -10.549,18.575 -18.591,25.604c-15.423,13.474 -38.889,17.187 -85.812,24.62c-46.916,7.433 -70.382,11.146 -89.213,3.096c-9.82,-4.197 -18.569,-10.553 -25.595,-18.595c-13.478,-15.426 -17.191,-38.886 -24.626,-85.813l-0.008,0Zm82.762,83.325c12.565,-0.76 28.748,-3.296 52.702,-7.09c23.962,-3.792 40.12,-6.384 52.318,-9.545c11.805,-3.064 17.247,-6.049 20.76,-9.121c5.169,-4.519 9.254,-10.145 11.95,-16.459c1.84,-4.288 3,-10.385 2.264,-22.563c-0.76,-12.562 -3.297,-28.749 -7.09,-52.705c-3.794,-23.955 -6.38,-40.126 -9.54,-52.312c-3.066,-11.81 -6.059,-17.25 -9.124,-20.763c-4.517,-5.17 -10.142,-9.256 -16.455,-11.954c-4.29,-1.84 -10.388,-3 -22.57,-2.265c-12.565,0.76 -28.74,3.297 -52.701,7.09c-23.954,3.8 -40.121,6.385 -52.31,9.545c-11.813,3.065 -17.247,6.057 -20.76,9.122c-5.172,4.518 -9.259,10.144 -11.958,16.458c-1.833,4.289 -2.993,10.386 -2.257,22.564c0.76,12.57 3.29,28.748 7.091,52.704c3.794,23.956 6.379,40.127 9.54,52.313c3.065,11.81 6.05,17.25 9.124,20.763c4.517,5.17 10.142,9.256 16.455,11.954c4.29,1.84 10.38,3 22.57,2.264l-0.009,-0Z" style="fill:url(#_Linear2);fill-rule:nonzero;"/><defs><linearGradient id="_Linear1" x1="0" y1="0" x2="1" y2="0" gradientUnits="userSpaceOnUse" gradientTransform="matrix(40.6477,128.843,-128.843,40.6477,100.28,49.1852)"><stop offset="0" style="stop-color:#66e3ff;stop-opacity:1"/><stop offset="1" style="stop-color:#7064f9;stop-opacity:1"/></linearGradient><linearGradient id="_Linear2" x1="0" y1="0" x2="1" y2="0" gradientUnits="userSpaceOnUse" gradientTransform="matrix(40.6477,253.904,-253.904,40.6477,100.28,-0.000278531)"><stop offset="0" style="stop-color:#66e3ff;stop-opacity:1"/><stop offset="1" style="stop-color:#7064f9;stop-opacity:1"/></linearGradient></defs></svg>