<?xml version="1.0" encoding="UTF-8" standalone="no"?><!DOCTYPE svg PUBLIC "-//W3C//DTD SVG 1.1//EN" "http://www.w3.org/Graphics/SVG/1.1/DTD/svg11.dtd"><svg width="100%" height="100%" viewBox="0 0 256 256" version="1.1" xmlns="http://www.w3.org/2000/svg" xmlns:xlink="http://www.w3.org/1999/xlink" xml:space="preserve" xmlns:serif="http://www.serif.com/" style="fill-rule:evenodd;clip-rule:evenodd;stroke-linejoin:round;stroke-miterlimit:2;"><g><circle cx="128" cy="128" r="128" style="fill:#14b0bf;"/><path d="M218.509,218.509c29.849,-29.85 41.861,-70.774 36.06,-109.545l-53.653,-54.034l-152.571,26.903l4.386,24.865l1.231,-0.217l0.039,0.217l-1.27,0l-0,84.199c-0,3.19 1.518,6.016 3.835,7.885c0.458,0.568 56.033,56.033 56.289,56.289c37.601,4.454 76.8,-7.708 105.654,-36.562Z" style="fill:#3387b5;fill-rule:nonzero;"/><path d="M207.654,190.894c0,5.596 -4.58,10.176 -10.176,10.176l-134.574,-0c-5.596,-0 -10.176,-4.58 -10.176,-10.176l0,-74.023c0,-5.596 4.58,-10.176 10.176,-10.176l134.574,0c5.596,0 10.176,4.58 10.176,10.176l0,74.023Z" style="fill:#0f303f;fill-rule:nonzero;"/><rect x="52.731" y="106.698" width="154.931" height="25.249" style="fill:#fff;"/><path d="M78,110.157l-18.437,18.683l18.683,-0l18.437,-18.683l-18.683,-0Zm77.661,-0l-18.437,18.683l18.683,-0l18.437,-18.683l-18.683,-0Zm-51.774,-0l-18.437,18.682l18.683,0l18.437,-18.683l-18.683,0l0,0.001Zm25.887,-0l-18.437,18.683l18.683,-0l18.437,-18.683l-18.683,-0Zm51.773,-0l-18.437,18.683l18.683,-0l18.437,-18.683l-18.683,-0Zm25.887,-0l-18.437,18.683l18.657,-0l0,-18.683l-0.22,-0Zm-154.703,-0l-0,18.683l0.123,-0l18.437,-18.683l-18.56,-0Z" style="fill:#0f303f;fill-rule:nonzero;"/><path d="M200.918,54.92l4.383,24.865l-152.574,26.895l-4.383,-24.865l152.574,-26.895Z" style="fill:#fff;"/><path d="M158.233,65.968l21.402,15.199l18.398,-3.244l-21.401,-15.198l-18.399,3.243Zm-76.482,13.484l21.402,15.198l18.398,-3.243l-21.401,-15.199l-18.399,3.244Zm50.987,-8.988l21.402,15.198l18.398,-3.243l-21.401,-15.199l-18.399,3.244Zm-25.492,4.495l21.401,15.199l18.399,-3.244l-21.401,-15.198l-18.399,3.243Zm-50.987,8.988l21.401,15.199l18.399,-3.244l-21.402,-15.198l-18.398,3.243Zm-7.312,1.291l3.244,18.398l18.373,-3.241l-21.402,-15.198l-0.215,0.041Zm134.293,-23.68l21.401,15.198l0.12,-0.02l-3.243,-18.399l-18.279,3.221Z" style="fill:#0f303f;fill-rule:nonzero;"/><path d="M197.317,158.689l-0.036,0l-0,-18.276l-134.72,0l-0,51.618l134.72,0l-0,-31.086l0.036,0l-0,-2.255Zm-2.069,-16.242l0,16.241l-50.565,0l0,-16.24l50.565,-0Zm-52.82,-0l-0,16.24l-53.903,0l-0,-16.24l53.903,-0Zm-77.832,47.547l0,-47.547l21.671,-0l-0,47.547l-21.671,-0Zm23.929,-0l-0,-29.051l53.903,-0l0,29.051l-53.903,-0Zm106.723,-0l-50.565,-0l0,-29.051l50.563,-0l-0,29.051l0.002,-0Z" style="fill:#fdc00f;fill-rule:nonzero;"/></g></svg>