<?xml version="1.0" encoding="UTF-8" standalone="no"?>
<!DOCTYPE svg PUBLIC "-//W3C//DTD SVG 1.1//EN" "http://www.w3.org/Graphics/SVG/1.1/DTD/svg11.dtd">
<svg width="100%" height="100%" viewBox="0 0 256 256" version="1.1" xmlns="http://www.w3.org/2000/svg" xmlns:xlink="http://www.w3.org/1999/xlink" xml:space="preserve" xmlns:serif="http://www.serif.com/" style="fill-rule:evenodd;clip-rule:evenodd;stroke-linejoin:round;stroke-miterlimit:2;">
    <g transform="matrix(0.32,0,0,0.32,0,0)">
        <path d="M800,87.5C800,39.207 760.793,0 712.5,0L87.5,0C39.207,0 0,39.207 0,87.5L0,712.5C0,760.793 39.207,800 87.5,800L712.5,800C760.793,800 800,760.793 800,712.5L800,87.5Z" style="fill:rgb(9,46,32);"/>
    </g>
    <g transform="matrix(0.32,0,0,0.32,0,0)">
        <path d="M582.428,294.368L582.428,501.326C582.428,572.635 577.211,606.837 561.559,636.404C547.064,664.816 527.93,682.783 488.512,702.496L405.609,663.074C445.032,644.524 464.161,628.296 476.335,603.359C489.091,577.852 493.153,548.285 493.153,470.603L493.153,294.368L582.428,294.368ZM440.402,156.496L440.402,569.741C394.603,578.436 360.977,581.914 324.457,581.914C215.465,581.914 158.652,532.641 158.652,438.141C158.652,347.123 218.947,287.995 312.28,287.995C326.772,287.995 337.786,289.15 351.122,292.629L351.122,156.496L440.402,156.496ZM320.979,359.876C275.76,359.876 249.67,387.704 249.67,436.398C249.67,483.94 274.6,510.026 320.399,510.026C330.25,510.026 338.369,509.446 351.122,507.711L351.122,364.51C340.688,361.035 331.993,359.876 320.979,359.876ZM582.428,156.971L582.428,248.569L493.153,248.569L493.153,156.971L582.428,156.971Z" style="fill:rgb(255,255,253);fill-rule:nonzero;"/>
    </g>
</svg>
