<?xml version="1.0" encoding="UTF-8" standalone="no"?>
<!DOCTYPE svg PUBLIC "-//W3C//DTD SVG 1.1//EN" "http://www.w3.org/Graphics/SVG/1.1/DTD/svg11.dtd">
<svg width="100%" height="100%" viewBox="0 0 256 256" version="1.1" xmlns="http://www.w3.org/2000/svg" xmlns:xlink="http://www.w3.org/1999/xlink" xml:space="preserve" xmlns:serif="http://www.serif.com/" style="fill-rule:evenodd;clip-rule:evenodd;stroke-linejoin:round;stroke-miterlimit:2;">
    <rect x="0" y="0" width="256" height="256" style="fill:rgb(238,238,238);"/>
    <g transform="matrix(4.83333,0,0,4.83333,12,11.9657)">
        <path d="M48,37.2C46.3,37.6 45.2,37.2 44.2,35.8L37.3,26.3L36.3,25L28.3,35.9C27.4,37.2 26.4,37.8 24.7,37.3L35,23.4L25.4,10.9C27,10.6 28.2,10.7 29.2,12.2L36.3,21.9L43.5,12.3C44.4,11 45.4,10.5 47.1,11L43.4,15.9L38.4,22.5C37.8,23.3 37.9,23.8 38.4,24.5L48,37.2ZM0,23.1L0.9,19C3.1,10.8 12.6,7.4 19,12.5C22.8,15.5 23.7,19.7 23.5,24.4L2.2,24.4C1.9,32.9 8,38 15.8,35.4C18.5,34.5 20.2,32.3 21,29.7C21.4,28.4 22.1,28.1 23.4,28.5C22.8,31.9 21.3,34.7 18.2,36.4C13.6,39 7,38.2 3.6,34.5C1.5,32.4 0.7,29.7 0.3,26.8C0.2,26.3 0.1,25.9 0,25.4L0,23.1ZM2.3,22.6L21.6,22.6C21.5,16.5 17.6,12.1 12.4,12C6.6,12 2.5,16.2 2.3,22.6Z" style="fill-rule:nonzero;"/>
    </g>
</svg>
