<?xml version="1.0" encoding="UTF-8" standalone="no"?>
<!DOCTYPE svg PUBLIC "-//W3C//DTD SVG 1.1//EN" "http://www.w3.org/Graphics/SVG/1.1/DTD/svg11.dtd">
<svg width="100%" height="100%" viewBox="0 0 256 256" version="1.1" xmlns="http://www.w3.org/2000/svg" xmlns:xlink="http://www.w3.org/1999/xlink" xml:space="preserve" xmlns:serif="http://www.serif.com/" style="fill-rule:evenodd;clip-rule:evenodd;stroke-linejoin:round;stroke-miterlimit:2;">
    <g transform="matrix(5.34901,0,0,5.34901,-0.376176,-0.21745)">
        <path d="M24,47.9C23.3,47.9 22.7,47.7 22.2,47.4L16.3,43.9C15.4,43.4 15.9,43.2 16.1,43.2C17.3,42.8 17.5,42.7 18.7,42C18.8,41.9 19,42 19.1,42L23.6,44.7C23.8,44.8 24,44.8 24.1,44.7L41.7,34.5C41.9,34.4 42,34.2 42,34L42,13.8C42,13.6 41.9,13.4 41.7,13.3L24.2,3.2C24,3.1 23.8,3.1 23.7,3.2L6.1,13.3C5.9,13.4 5.8,13.6 5.8,13.8L5.8,34.1C5.8,34.3 5.9,34.5 6.1,34.6L10.9,37.4C13.5,38.7 15.1,37.2 15.1,35.6L15.1,15.6C15.1,15.3 15.3,15.1 15.6,15.1L17.8,15.1C18.1,15.1 18.3,15.3 18.3,15.6L18.3,35.6C18.3,39.1 16.4,41.1 13.1,41.1C12.1,41.1 11.3,41.1 9.1,40L4.5,37.4C3.4,36.7 2.7,35.5 2.7,34.2L2.7,13.8C2.7,12.5 3.4,11.2 4.5,10.6L22.2,0.5C23.3,-0.1 24.8,-0.1 25.9,0.5L43.5,10.7C44.6,11.4 45.3,12.6 45.3,13.9L45.3,34.2C45.3,35.5 44.6,36.8 43.5,37.4L25.8,47.5C25.3,47.8 24.6,47.9 24,47.9ZM29.4,34C21.7,34 20.1,30.5 20.1,27.5C20.1,27.2 20.3,27 20.6,27L22.9,27C23.2,27 23.4,27.2 23.4,27.4C23.8,29.7 24.8,30.9 29.4,30.9C33.1,30.9 34.7,30.1 34.7,28.1C34.7,27 34.3,26.1 28.5,25.5C23.7,25 20.7,24 20.7,20.1C20.7,16.5 23.7,14.4 28.7,14.4C34.3,14.4 37.1,16.3 37.5,20.6C37.5,20.7 37.5,20.9 37.4,21C37.3,21.1 37.2,21.2 37,21.2L34.7,21.2C34.5,21.2 34.3,21 34.2,20.8C33.7,18.4 32.3,17.6 28.7,17.6C24.7,17.6 24.2,19 24.2,20.1C24.2,21.4 24.8,21.8 30.2,22.5C35.6,23.2 38.2,24.2 38.2,28C38.2,31.8 35,34 29.4,34Z" style="fill:rgb(83,158,67);fill-rule:nonzero;"/>
    </g>
</svg>
