<?xml version="1.0" encoding="UTF-8" standalone="no"?>
<!DOCTYPE svg PUBLIC "-//W3C//DTD SVG 1.1//EN" "http://www.w3.org/Graphics/SVG/1.1/DTD/svg11.dtd">
<svg width="100%" height="100%" viewBox="0 0 256 256" version="1.1" xmlns="http://www.w3.org/2000/svg" xmlns:xlink="http://www.w3.org/1999/xlink" xml:space="preserve" xmlns:serif="http://www.serif.com/" style="fill-rule:evenodd;clip-rule:evenodd;stroke-linejoin:round;stroke-miterlimit:2;">
    <g transform="matrix(5.33333,0,0,5.33333,-0.0522343,0)">
        <path d="M24.6,0C22.6,0 21.3,0.2 19.6,0.5C14.7,1.3 13.9,3.1 13.9,6.4L13.9,11.4L25.3,11.4L25.3,13.9L8,13.9C4.7,13.9 1.8,15.5 0.8,19.2C-0.2,23.5 -0.3,26.2 0.8,30.7C1.6,34.1 3.5,36.6 6.8,36.6L11.4,36.6L11.4,30.2C11.4,26.5 14.8,22.8 18.7,22.8L27.8,22.8C31,22.8 34.1,20.4 34.1,17.3L34.1,6.4C34.1,3.3 31.9,1 28.8,0.5C28.9,0.5 26.6,0 24.6,0ZM18.3,5.1C19.3,5.1 20.2,6 20.2,7C20.2,8.1 19.3,8.9 18.3,8.9C17.2,8.9 16.4,8.1 16.4,7C16.4,5.9 17.3,5.1 18.3,5.1Z" style="fill:rgb(2,119,189);fill-rule:nonzero;"/>
    </g>
    <g transform="matrix(5.33333,0,0,5.33333,-0.0522343,0)">
        <path d="M23.4,48C25.4,48 26.7,47.8 28.4,47.5C33.3,46.7 34.1,44.9 34.1,41.6L34.1,36.6L22.7,36.6L22.7,34.1L40,34.1C43.3,34.1 46.2,32.5 47.2,28.8C48.2,24.5 48.3,21.8 47.2,17.3C46.4,13.9 44.5,11.4 41.2,11.4L36.6,11.4L36.6,17.8C36.6,21.5 33.2,25.2 29.3,25.2L20.2,25.2C17,25.2 13.9,27.6 13.9,30.7L13.9,41.5C13.9,44.6 16.1,46.9 19.2,47.4C19.1,47.5 21.4,48 23.4,48ZM29.7,42.9C28.7,42.9 27.8,42 27.8,41C27.8,39.9 28.7,39.1 29.7,39.1C30.8,39.1 31.6,39.9 31.6,41C31.6,42.1 30.7,42.9 29.7,42.9Z" style="fill:rgb(255,193,7);fill-rule:nonzero;"/>
    </g>
</svg>
