<?xml version="1.0" standalone="no"?>
<!DOCTYPE svg PUBLIC "-//W3C//DTD SVG 20010904//EN"
 "http://www.w3.org/TR/2001/REC-SVG-20010904/DTD/svg10.dtd">
<svg version="1.0" xmlns="http://www.w3.org/2000/svg"
 width="700.000000pt" height="700.000000pt" viewBox="0 0 700.000000 700.000000"
 preserveAspectRatio="xMidYMid meet">
<metadata>
Created by potrace 1.14, written by Peter Selinger 2001-2017
</metadata>
<g transform="translate(0.000000,700.000000) scale(0.100000,-0.100000)"
fill="#000000" stroke="none">
<path d="M1213 5378 l3 -273 224 -146 c124 -81 383 -249 575 -374 395 -256
991 -643 1635 -1062 807 -525 901 -585 907 -580 3 3 6 126 7 272 l1 266 -104
67 c-58 37 -160 103 -228 147 -67 44 -165 107 -215 140 -51 32 -149 96 -218
140 -69 45 -170 110 -225 146 -54 35 -142 92 -195 126 -52 34 -147 95 -210
136 -63 40 -164 106 -225 145 -299 194 -502 324 -725 468 -135 87 -298 193
-363 236 -65 43 -120 78 -123 78 -8 0 -69 44 -72 53 -2 4 -8 7 -13 7 -4 0 -66
38 -136 83 -70 46 -167 109 -216 140 l-88 57 4 -272z"/>
<path d="M5496 5458 c-163 -106 -304 -197 -314 -203 -9 -5 -42 -26 -72 -46
-30 -20 -140 -92 -245 -159 -104 -68 -233 -151 -285 -185 -295 -192 -359 -233
-393 -254 l-39 -24 29 -18 c15 -10 35 -23 43 -29 274 -186 340 -230 347 -230
4 1 46 25 93 54 83 53 505 315 545 339 11 7 39 25 62 40 l43 28 0 -1711 0
-1710 242 2 243 3 0 2148 c0 1181 0 2147 -1 2147 -1 0 -135 -87 -298 -192z"/>
<path d="M0 3200 l0 -1850 234 0 234 0 -1 1405 c-1 773 1 1405 4 1405 8 0 61
-33 479 -297 118 -75 234 -147 258 -162 23 -14 195 -123 383 -241 712 -450
842 -531 854 -528 16 4 404 261 405 268 0 3 -107 74 -238 158 -217 141 -1452
940 -1807 1170 -82 53 -185 120 -230 149 -44 28 -141 91 -215 139 -74 48 -160
103 -190 122 -30 20 -81 53 -112 74 l-58 39 0 -1851z"/>
<path d="M6775 4899 c-115 -77 -216 -143 -223 -148 -13 -7 -13 42 -12 -2428
l0 -973 230 0 230 0 0 1845 c0 1015 -3 1845 -7 1844 -5 0 -102 -63 -218 -140z"/>
<path d="M1210 2112 l0 -761 28 -3 c15 -2 125 -2 244 0 l217 3 -1 606 -2 606
-70 45 c-39 25 -143 92 -231 150 -88 57 -165 107 -172 109 -11 4 -13 -143 -13
-755z"/>
</g>
</svg>
