<?xml version="1.0" encoding="UTF-8" standalone="no"?>
<!DOCTYPE svg PUBLIC "-//W3C//DTD SVG 1.1//EN" "http://www.w3.org/Graphics/SVG/1.1/DTD/svg11.dtd">
<svg width="100%" height="100%" viewBox="0 0 25 24" version="1.1" xmlns="http://www.w3.org/2000/svg" xmlns:xlink="http://www.w3.org/1999/xlink" xml:space="preserve" xmlns:serif="http://www.serif.com/" style="fill-rule:evenodd;clip-rule:evenodd;stroke-linejoin:round;stroke-miterlimit:2;">
    <g transform="matrix(10.6665,0,0,10.6665,-5.29464,0.000234573)">
        <path d="M2.798,0.891L2.794,0.882L2.476,0.053C2.464,0.021 2.433,-0 2.398,-0C2.361,-0 2.328,0.025 2.318,0.061L2.103,0.718L1.234,0.718L1.019,0.061C1.009,0.025 0.975,0 0.938,0C0.904,0 0.873,0.021 0.86,0.053L0.542,0.882L0.539,0.891C0.445,1.136 0.526,1.415 0.735,1.573L0.739,1.576L1.223,1.938L1.463,2.12L1.608,2.23C1.643,2.257 1.692,2.257 1.727,2.23L1.873,2.12L2.113,1.938L2.6,1.574L2.601,1.573C2.811,1.415 2.891,1.136 2.798,0.891Z" style="fill:rgb(226,67,41);fill-rule:nonzero;"/>
    </g>
    <g transform="matrix(10.6665,0,0,10.6665,-5.29464,0.000234573)">
        <path d="M2.798,0.891L2.794,0.882C2.639,0.914 2.493,0.98 2.367,1.074L1.669,1.602L2.113,1.938L2.6,1.574L2.602,1.573C2.811,1.415 2.891,1.136 2.798,0.891Z" style="fill:rgb(252,109,38);fill-rule:nonzero;"/>
    </g>
    <g transform="matrix(10.6665,0,0,10.6665,-5.29464,0.000234573)">
        <path d="M1.223,1.938L1.463,2.12L1.608,2.23C1.643,2.257 1.692,2.257 1.727,2.23L1.873,2.12L2.113,1.938L1.668,1.602L1.223,1.938Z" style="fill:rgb(252,163,38);fill-rule:nonzero;"/>
    </g>
    <g transform="matrix(10.6665,0,0,10.6665,-5.29464,0.000234573)">
        <path d="M0.97,1.074C0.843,0.98 0.697,0.914 0.542,0.882L0.539,0.891C0.445,1.136 0.526,1.415 0.735,1.573L0.739,1.576L1.223,1.938L1.667,1.602L0.97,1.074L0.97,1.074Z" style="fill:rgb(252,109,38);fill-rule:nonzero;"/>
    </g>
</svg>
