<?xml version="1.0" encoding="UTF-8" standalone="no"?>
<!DOCTYPE svg PUBLIC "-//W3C//DTD SVG 1.1//EN" "http://www.w3.org/Graphics/SVG/1.1/DTD/svg11.dtd">
<svg width="100%" height="100%" viewBox="0 0 256 256" version="1.1" xmlns="http://www.w3.org/2000/svg" xmlns:xlink="http://www.w3.org/1999/xlink" xml:space="preserve" xmlns:serif="http://www.serif.com/" style="fill-rule:evenodd;clip-rule:evenodd;stroke-linejoin:round;stroke-miterlimit:2;">
    <g transform="matrix(0.16,0,0,0.16,0,-2.84217e-14)">
        <path d="M886,362.4C945,368.4 1003.9,382 1052,400.9L1059.5,403.9L1059.8,518C1059.9,580.8 1059.7,632 1059.3,631.8C1058.8,631.6 1054.5,629.4 1049.5,626.9C986.4,594.5 903.1,572.9 831.5,570.4C791.7,569 765.1,575.1 750.9,589C744,595.8 740.3,603.5 738.8,614C736.5,629.4 740.5,641.6 751.7,653.2C768,670 788.1,679.7 854.5,702.5C934.8,730.1 967.4,744.4 1002.8,767.7C1062.3,806.8 1095.3,858.7 1105.7,929.5C1107,938.6 1107.4,947.9 1107.4,968C1107.4,996.5 1106.4,1007.3 1101.4,1030C1074.7,1150.5 968.4,1226.8 810.1,1239C792.9,1240.3 741.6,1240.3 724,1239C654.2,1233.9 586,1218.2 521.3,1192.4L504,1185.5L504,1070.3C504,1006.9 504.2,955 504.4,955C504.6,955 514.6,959.9 526.6,965.9C596,1000.4 668.4,1022.8 732.3,1029.5C751.6,1031.5 784.5,1031.5 799.1,1029.4C839.5,1023.8 860,1005.1 860,973.9C860,948.5 844.3,930.2 806.5,911.2C792.1,904 771.2,895.7 733.6,882C681.7,863.2 658.3,853.7 632.8,840.9C551,799.9 508.9,748.8 495.8,674.5C493,658.5 492.3,621.4 494.4,601.8C500,549.2 518,504.1 548.6,466.4C558.2,454.5 578,435.5 590.3,426.2C638.2,390.1 699.3,368.5 773.5,361.5C793.5,359.6 863.7,360.2 886,362.4Z" style="fill:white;"/>
    </g>
    <g transform="matrix(0.016,0,0,-0.016,0,256)">
        <path d="M0,16000L0,0L16000,0L16000,16000L0,16000ZM8860,12376C9450,12316 10039,12180 10520,11991L10595,11961L10598,10820C10599,10192 10597,9680 10593,9682C10588,9684 10545,9706 10495,9731C9864,10055 9031,10271 8315,10296C7917,10310 7651,10249 7509,10110C7440,10042 7403,9965 7388,9860C7365,9706 7405,9584 7517,9468C7680,9300 7881,9203 8545,8975C9348,8699 9674,8556 10028,8323C10623,7932 10953,7413 11057,6705C11070,6614 11074,6521 11074,6320C11074,6035 11064,5927 11014,5700C10747,4495 9684,3732 8101,3610C7929,3597 7416,3597 7240,3610C6542,3661 5860,3818 5213,4076L5040,4145L5040,5297C5040,5931 5042,6450 5044,6450C5046,6450 5146,6401 5266,6341C5960,5996 6684,5772 7323,5705C7516,5685 7845,5685 7991,5706C8395,5762 8600,5949 8600,6261C8600,6515 8443,6698 8065,6888C7921,6960 7712,7043 7336,7180C6817,7368 6583,7463 6328,7591C5510,8001 5089,8512 4958,9255C4930,9415 4923,9786 4944,9982C5000,10508 5180,10959 5486,11336C5582,11455 5780,11645 5903,11738C6382,12099 6993,12315 7735,12385C7935,12404 8637,12398 8860,12376Z" style="fill:rgb(99,91,255);fill-rule:nonzero;"/>
    </g>
</svg>
