<?xml version="1.0" encoding="UTF-8" standalone="no"?>
<!DOCTYPE svg PUBLIC "-//W3C//DTD SVG 1.1//EN" "http://www.w3.org/Graphics/SVG/1.1/DTD/svg11.dtd">
<svg width="100%" height="100%" viewBox="0 0 256 256" version="1.1" xmlns="http://www.w3.org/2000/svg" xmlns:xlink="http://www.w3.org/1999/xlink" xml:space="preserve" xmlns:serif="http://www.serif.com/" style="fill-rule:evenodd;clip-rule:evenodd;stroke-linejoin:round;stroke-miterlimit:2;">
    <g transform="matrix(5.33333,0,0,5.33333,0,0.266667)">
        <path d="M30.5,15.4L32,15.4L36.2,11.2L36.4,9.4C33.1,6.4 28.7,4.6 23.9,4.6C15.2,4.6 7.9,10.5 5.8,18.5C6.3,18.2 7.2,18.4 7.2,18.4L15.6,17C15.6,17 16,16.3 16.2,16.3C18.2,14.1 21,12.9 23.9,12.9C26.5,13 28.8,13.9 30.5,15.4Z" style="fill:rgb(234,67,53);fill-rule:nonzero;"/>
    </g>
    <g transform="matrix(5.33333,0,0,5.33333,0,0.266667)">
        <path d="M42.1,18.6C41.1,15 39.1,11.9 36.4,9.5L30.5,15.4C32.9,17.3 34.4,20.2 34.4,23.5L34.4,24.5C37.3,24.5 39.6,26.8 39.6,29.7C39.6,32.6 37.3,34.9 34.4,34.9L24,34.9L23,36L23,42.3L24,43.3L34.4,43.3C41.9,43.3 48,37.2 48,29.7C48,25.1 45.7,21 42.1,18.6Z" style="fill:rgb(66,133,244);fill-rule:nonzero;"/>
    </g>
    <g transform="matrix(5.33333,0,0,5.33333,0,0.266667)">
        <path d="M13.6,43.3L24,43.3L24,35L13.6,35C12.9,35 12.1,34.8 11.5,34.5L10,35L5.8,39.2L5.4,40.6C7.7,42.3 10.6,43.3 13.6,43.3Z" style="fill:rgb(52,168,83);fill-rule:nonzero;"/>
    </g>
    <g transform="matrix(5.33333,0,0,5.33333,0,0.266667)">
        <path d="M13.6,16.2C6.1,16.2 0,22.3 0,29.7C0,34.1 2.1,38 5.4,40.5L11.4,34.5C9.5,33.7 8.3,31.8 8.3,29.7C8.3,26.8 10.6,24.5 13.5,24.5C15.6,24.5 17.4,25.8 18.3,27.6L24.3,21.6C21.9,18.3 18,16.2 13.6,16.2Z" style="fill:rgb(251,188,5);fill-rule:nonzero;"/>
    </g>
</svg>
