<?xml version="1.0" encoding="UTF-8" standalone="no"?>
<!DOCTYPE svg PUBLIC "-//W3C//DTD SVG 1.1//EN" "http://www.w3.org/Graphics/SVG/1.1/DTD/svg11.dtd">
<svg width="100%" height="100%" viewBox="0 0 256 256" version="1.1" xmlns="http://www.w3.org/2000/svg" xmlns:xlink="http://www.w3.org/1999/xlink" xml:space="preserve" xmlns:serif="http://www.serif.com/" style="fill-rule:evenodd;clip-rule:evenodd;stroke-linejoin:round;stroke-miterlimit:2;">
    <g transform="matrix(4,0,0,4,-3.51386e-13,-3.51386e-13)">
        <path d="M62.8,29.2L34.9,1.2C33.3,-0.4 30.7,-0.4 29.1,1.2L23.2,7L30.6,14.4C32.3,13.8 34.3,14.2 35.6,15.6C36.9,16.9 37.4,18.9 36.8,20.7L43.9,27.8C45.6,27.2 47.6,27.6 49,29C50.9,30.9 50.9,34 49,35.9C47.1,37.8 44,37.8 42.1,35.9C40.7,34.5 40.3,32.3 41,30.6L34.4,24L34.4,41.4C34.9,41.6 35.3,42 35.7,42.3C37.6,44.2 37.6,47.3 35.7,49.2C33.8,51.1 30.7,51.1 28.8,49.2C26.9,47.3 26.9,44.2 28.8,42.3C29.3,41.8 29.8,41.5 30.4,41.2L30.4,23.6C29.8,23.4 29.3,23 28.8,22.5C27.4,21.1 27,19 27.7,17.1L20.4,9.8L1.2,29C-0.4,30.6 -0.4,33.2 1.2,34.8L29.1,62.7C30.7,64.3 33.3,64.3 34.9,62.7L62.8,35C64.4,33.4 64.4,30.8 62.8,29.2" style="fill:rgb(240,60,46);fill-rule:nonzero;"/>
    </g>
</svg>
