<?xml version="1.0" encoding="UTF-8" standalone="no"?>
<!DOCTYPE svg PUBLIC "-//W3C//DTD SVG 1.1//EN" "http://www.w3.org/Graphics/SVG/1.1/DTD/svg11.dtd">
<svg width="100%" height="100%" viewBox="0 0 256 256" version="1.1" xmlns="http://www.w3.org/2000/svg" xmlns:xlink="http://www.w3.org/1999/xlink" xml:space="preserve" xmlns:serif="http://www.serif.com/" style="fill-rule:evenodd;clip-rule:evenodd;stroke-linejoin:round;stroke-miterlimit:2;">
    <g transform="matrix(256,0,0,256,0,0)">
        <path d="M0,1L0,0L1,0L1,1L0,1ZM0.188,0.188L0.188,0.813L0.5,0.813L0.5,0.313L0.688,0.313L0.688,0.813L0.813,0.813L0.813,0.188L0.188,0.188Z" style="fill:rgb(193,33,39);fill-rule:nonzero;"/>
    </g>
    <g transform="matrix(256,0,0,256,0,0)">
        <path d="M0.188,0.188L0.813,0.188L0.813,0.813L0.688,0.813L0.688,0.313L0.5,0.313L0.5,0.813L0.188,0.813L0.188,0.188Z" style="fill:white;fill-rule:nonzero;"/>
    </g>
</svg>
