<?xml version="1.0" encoding="UTF-8" standalone="no"?>
<!DOCTYPE svg PUBLIC "-//W3C//DTD SVG 1.1//EN" "http://www.w3.org/Graphics/SVG/1.1/DTD/svg11.dtd">
<svg width="100%" height="100%" viewBox="0 0 256 256" version="1.1" xmlns="http://www.w3.org/2000/svg" xmlns:xlink="http://www.w3.org/1999/xlink" xml:space="preserve" xmlns:serif="http://www.serif.com/" style="fill-rule:evenodd;clip-rule:evenodd;stroke-linejoin:round;stroke-miterlimit:2;">
    <g transform="matrix(1.98909,0,0,1.98909,1.89182,-0.79127)">
        <path d="M0,83.1L63.4,129.1L95.1,120L31.7,74L31.7,41.9L0,51L0,83.1Z" style="fill:rgb(0,167,255);fill-rule:nonzero;"/>
    </g>
    <g transform="matrix(1.98909,0,0,1.98909,1.89182,-0.79127)">
        <path d="M95.1,55.9L31.7,9.9L31.7,42L95.1,88L126.8,78.9L126.8,46.9L95.1,55.9Z" style="fill:rgb(0,167,255);fill-rule:nonzero;"/>
    </g>
    <g transform="matrix(1.98909,0,0,1.98909,1.89182,-0.79127)">
        <path d="M31.7,9.9L95.1,55.9L126.8,46.8L63.4,0.8L31.7,9.9Z" style="fill:rgb(11,254,253);fill-rule:nonzero;"/>
    </g>
    <g transform="matrix(1.98909,0,0,1.98909,1.89182,-0.79127)">
        <path d="M95.1,87.9L31.7,41.9L31.7,74L95.1,120L95.1,87.9Z" style="fill:rgb(11,254,253);fill-rule:nonzero;"/>
    </g>
    <g transform="matrix(1.98909,0,0,1.98909,1.89182,-0.79127)">
        <path d="M0,83.1L31.7,74L31.7,41.9L0,51L0,83.1Z" style="fill:rgb(0,206,255);fill-rule:nonzero;"/>
    </g>
    <g transform="matrix(1.98909,0,0,1.98909,1.89182,-0.79127)">
        <path d="M95.1,55.9L95.1,88L126.8,78.9L126.8,46.9L95.1,55.9Z" style="fill:rgb(0,206,255);fill-rule:nonzero;"/>
    </g>
</svg>
