<?xml version="1.0" encoding="UTF-8" standalone="no"?>
<!DOCTYPE svg PUBLIC "-//W3C//DTD SVG 1.1//EN" "http://www.w3.org/Graphics/SVG/1.1/DTD/svg11.dtd">
<svg width="100%" height="100%" viewBox="0 0 410 404" version="1.1" xmlns="http://www.w3.org/2000/svg" xmlns:xlink="http://www.w3.org/1999/xlink" xml:space="preserve" xmlns:serif="http://www.serif.com/" style="fill-rule:evenodd;clip-rule:evenodd;stroke-linejoin:round;stroke-miterlimit:2;">
    <g transform="matrix(0.652751,0,0,0.652751,-8.22666,-1.52237)">
        <path d="M633.683,93.937L343.312,613.173C337.316,623.893 321.914,623.956 315.829,613.288L19.699,93.987C13.07,82.362 23.011,68.28 36.185,70.635L326.868,122.593C328.722,122.924 330.62,122.921 332.475,122.583L617.078,70.709C630.208,68.316 640.196,82.289 633.683,93.937Z" style="fill:url(#_Linear1);fill-rule:nonzero;"/>
    </g>
    <g transform="matrix(0.652751,0,0,0.652751,-8.22666,-1.52237)">
        <path d="M465.335,2.485L250.452,44.59C246.92,45.282 244.305,48.275 244.092,51.867L230.873,275.115C230.562,280.373 235.392,284.454 240.524,283.27L300.35,269.463C305.948,268.172 311.006,273.102 309.855,278.732L292.081,365.77C290.885,371.628 296.384,376.637 302.105,374.899L339.057,363.673C344.786,361.934 350.29,366.957 349.078,372.819L320.831,509.537C319.064,518.089 330.439,522.752 335.183,515.42L338.352,510.523L513.451,161.082C516.383,155.231 511.327,148.56 504.901,149.8L443.319,161.685C437.532,162.801 432.608,157.412 434.242,151.75L474.435,12.415C476.07,6.744 471.129,1.35 465.335,2.485Z" style="fill:url(#_Linear2);fill-rule:nonzero;"/>
    </g>
    <defs>
        <linearGradient id="_Linear1" x1="0" y1="0" x2="1" y2="0" gradientUnits="userSpaceOnUse" gradientTransform="matrix(361.39,490.797,-490.797,361.39,12.469,52.078)"><stop offset="0" style="stop-color:rgb(65,209,255);stop-opacity:1"/><stop offset="1" style="stop-color:rgb(189,52,254);stop-opacity:1"/></linearGradient>
        <linearGradient id="_Linear2" x1="0" y1="0" x2="1" y2="0" gradientUnits="userSpaceOnUse" gradientTransform="matrix(65.3738,448.457,-448.457,65.3738,310.184,13.9162)"><stop offset="0" style="stop-color:rgb(255,234,131);stop-opacity:1"/><stop offset="0.08" style="stop-color:rgb(255,221,53);stop-opacity:1"/><stop offset="1" style="stop-color:rgb(255,168,0);stop-opacity:1"/></linearGradient>
    </defs>
</svg>
