<?xml version="1.0" encoding="UTF-8" standalone="no"?>
<!DOCTYPE svg PUBLIC "-//W3C//DTD SVG 1.1//EN" "http://www.w3.org/Graphics/SVG/1.1/DTD/svg11.dtd">
<svg width="100%" height="100%" viewBox="0 0 256 256" version="1.1" xmlns="http://www.w3.org/2000/svg" xmlns:xlink="http://www.w3.org/1999/xlink" xml:space="preserve" xmlns:serif="http://www.serif.com/" style="fill-rule:evenodd;clip-rule:evenodd;stroke-linejoin:round;stroke-miterlimit:2;">
    <g transform="matrix(6.54953,0,0,6.54953,0.155553,0.816695)">
        <path d="M37.68,4.217L29.632,0.342C28.7,-0.107 27.587,0.083 26.855,0.814L0.507,24.837C-0.201,25.483 -0.201,26.599 0.509,27.244L2.661,29.201C3.241,29.728 4.115,29.767 4.74,29.293L36.469,5.223C37.534,4.415 39.063,5.174 39.063,6.51L39.063,6.417C39.063,5.479 38.525,4.624 37.68,4.217Z" style="fill:rgb(0,101,169);fill-rule:nonzero;"/>
    </g>
    <g transform="matrix(6.54953,0,0,6.54953,0.155553,0.816695)">
        <path d="M37.68,34.845L29.632,38.721C28.7,39.169 27.587,38.98 26.855,38.249L0.507,14.225C-0.201,13.579 -0.201,12.463 0.509,11.818L2.661,9.862C3.241,9.334 4.115,9.295 4.74,9.769L36.469,33.84C37.534,34.647 39.063,33.888 39.063,32.552L39.063,32.646C39.063,33.583 38.525,34.438 37.68,34.845Z" style="fill:rgb(0,122,204);fill-rule:nonzero;"/>
    </g>
    <g transform="matrix(6.54953,0,0,6.54953,0.155553,0.816695)">
        <path d="M29.632,38.721C28.7,39.17 27.587,38.98 26.855,38.249C27.756,39.15 29.297,38.512 29.297,37.237L29.297,1.825C29.297,0.551 27.756,-0.087 26.855,0.814C27.587,0.083 28.7,-0.107 29.632,0.341L37.679,4.211C38.525,4.618 39.063,5.473 39.063,6.411L39.063,32.651C39.063,33.589 38.525,34.445 37.679,34.851L29.632,38.721Z" style="fill:rgb(31,156,240);fill-rule:nonzero;"/>
    </g>
</svg>
